[Module]
VortexTrackerII=1
Version=3.7
Title=tesko
Author=em00k
ShowInfo=0
NoteTable=2
ChipFreq=1773400
IntFreq=50000
Speed=5
Noise=HEX
PlayOrder=L5,5,9,0,10,1,1,2,11,12,11,12,13,1,3,0,0,14,14,6,7,8,4


[Ornament1]
L0

[Ornament2]
L0

[Ornament3]
L0

[Ornament4]
L0

[Ornament5]
L0

[Ornament6]
L0

[Ornament7]
L0

[Ornament8]
L0

[Ornament9]
L0

[Ornament10]
L0

[Ornament11]
L0

[Ornament12]
L0

[Ornament13]
L0

[Ornament14]
L0

[Ornament15]
L0

[Sample1]
T.E -003_ +00_ E_
T.E +003_ +00_ E_
T.E +000_ +00_ E_
T.E +000_ +00_ E_
T.E +000_ +00_ E_
T.E +000_ +00_ D_
T.E +000_ +00_ D_
T.E +000_ +00_ D_
T.E +000_ +00_ D_
T.E +000_ +00_ C_
T.E -002_ +00_ C_
T.E +000_ +00_ C_
T.E +000_ +00_ C_
T.E +002_ +00_ B_
T.E +000_ +00_ B_
T.E +000_ +00_ B_
T.E -002_ +00_ B_
T.E +000_ +00_ B_
T.E +002_ +00_ A_
T.E +000_ +00_ A_
T.E -003_ +00_ A_
T.E +000_ +00_ A_
T.E +003_ +00_ A_
T.E +000_ +00_ A_
T.E -003_ +00_ A_
T.E -003_ +00_ A_
T.E +000_ +00_ A_
T.E +000_ +00_ A_
T.E +003_ +00_ A_
T.E +003_ +00_ 9_
T.E +000_ +00_ 9_
T.E +000_ +00_ 9_
T.E +002_ +00_ 9_
T.E +002_ +00_ 9_
T.E +000_ +00_ 9_
T.E -003_ +00_ 9_
T.E -003_ +00_ 9_
T.E +000_ +00_ 9_
T.E +003_ +00_ 9_
T.E +003_ +00_ 9_
T.E +000_ +00_ 9_
T.E -003_ +00_ 9_
T.E -003_ +00_ 9_
T.E +000_ +00_ 9_
T.E +003_ +00_ 9_
T.E +003_ +00_ 9_
T.E +000_ +00_ 9_
T.E -003_ +00_ 9_ L
T.E -003_ +00_ 9_
T.E +000_ +00_ 9_
T.E +003_ +00_ 9_
T.E +003_ +00_ 9_
T.E +000_ +00_ 9_

[Sample2]
T.E +000_ +00_ F_
T.E +000_ +00_ F_
T.E +000_ +00_ E_
T.E +000_ +00_ E_
T.E +000_ +00_ D_
T.E +000_ +00_ D_
T.E +000_ +00_ D_
T.E +000_ +00_ C_
T.E +000_ +00_ C_
T.E +000_ +00_ C_
T.E +000_ +00_ B_
T.E +000_ +00_ B_
T.E +000_ +00_ B_
T.E +000_ +00_ B_
T.E +000_ +00_ A_
T.E +000_ +00_ A_
T.E +000_ +00_ A_
T.E +000_ +00_ A_
T.E +000_ +00_ 9_
T.E +000_ +00_ 9_
T.E +000_ +00_ 9_
T.E +000_ +00_ 9_
T.E +000_ +00_ 8_
T.E +000_ +00_ 8_
T.E +000_ +00_ 8_
T.E +000_ +00_ 8_
T.E +000_ +00_ 8_
T.E +000_ +00_ 7_
T.E +000_ +00_ 7_
T.E +000_ +00_ 7_
T.E +000_ +00_ 7_
T.E +000_ +00_ 7_
T.E +000_ +00_ 6_
T.E +000_ +00_ 6_
T.E +000_ +00_ 6_
T.E +000_ +00_ 6_
T.E +000_ +00_ 6_
T.E +000_ +00_ 6_
T.E +000_ +00_ 5_
T.E +000_ +00_ 5_
T.E +000_ +00_ 5_
T.E +000_ +00_ 5_
T.E +000_ +00_ 5_
T.E +000_ +00_ 5_
T.E +000_ +00_ 4_
T.E +000_ +00_ 4_
T.E +000_ +00_ 4_
T.E +000_ +00_ 4_
T.E +000_ +00_ 4_
T.E +000_ +00_ 4_
T.E +000_ +00_ 4_
T.E +000_ +00_ 3_
T.E +000_ +00_ 3_
T.E +000_ +00_ 3_
T.E +000_ +00_ 3_
T.E +000_ +00_ 3_
T.E +000_ +00_ 3_
T.E +000_ +00_ 3_
T.E +000_ +00_ 2_
T.E +000_ +00_ 2_
T.E +000_ +00_ 2_
T.E +000_ +00_ 2_
T.E +000_ +00_ 2_
T.E +000_ +00_ 2_ L

[Sample3]
T.. +000_ +00_ F_
T.. +000_ +00_ F_
T.. +000_ +00_ E_
T.. +000_ +00_ E_
T.. +000_ +00_ D_
T.. +000_ +00_ D_
T.. +000_ +00_ C_
T.. +000_ +00_ C_
T.. +000_ +00_ B_
T.. +000_ +00_ B_
T.. +000_ +00_ A_
T.. +000_ +00_ A_
T.. +000_ +00_ A_
T.. +000_ +00_ A_
T.. +000_ +00_ 9_
T.. +000_ +00_ 9_
T.. +000_ +00_ 8_
T.. +000_ +00_ 8_
T.. +000_ +00_ 8_
T.. +000_ +00_ 8_
T.. +000_ +00_ 7_
T.. +000_ +00_ 7_
T.. +000_ +00_ 7_
T.. +000_ +00_ 7_
T.. +000_ +00_ 6_
T.. +000_ +00_ 6_
T.. +000_ +00_ 6_
T.. +000_ +00_ 5_
T.. +000_ +00_ 5_
T.. +000_ +00_ 5_
T.. +000_ +00_ 5_
T.. +000_ +00_ 5_ L

[Sample4]
TNE +000_ +00_ F_
T.E +000_ +00_ E_
T.E +000_ +00_ D_
T.E +000_ +00_ C_
T.E +000_ +00_ B_
T.E +000_ +00_ A_
T.E +000_ +00_ 9_
T.E +000_ +00_ 8_
T.E +000_ +00_ 7_
T.E +000_ +00_ 6_
T.. +000_ +00_ 5_
T.. +000_ +00_ 4_
T.. +000_ +00_ 3_
T.. +000_ +00_ 2_
T.. +000_ +00_ 1_ L

[Sample5]
T.E +000_ +00_ E_
T.E +000_ +00_ E_
T.E +000_ +00_ D_
T.E +000_ +00_ D_
T.E +000_ +00_ C_
T.E +000_ +00_ C_
T.E +000_ +00_ C_
T.E +000_ +00_ C_
T.E +000_ +00_ C_
T.E +000_ +00_ C_
T.E +000_ +00_ C_
T.E +000_ +00_ C_
T.E +000_ +00_ C_
T.E +000_ +00_ C_
T.E +000_ +00_ C_
T.E +000_ +00_ C_
T.E +000_ +00_ C_
T.E -001^ +00_ C_ L
T.E -001^ +00_ C_
T.E +001^ +00_ C_
T.E +001^ +00_ C_
T.E +001^ +00_ C_
T.E +001^ +00_ C_
T.E -001^ +00_ C_
T.. -001^ +00_ C_

[Sample6]
T.E +000_ +00_ F_
T.E +000_ +00_ F_
T.E +000_ +00_ E_
T.E +000_ +00_ E_
T.E +000_ +00_ E_
T.E +000_ +00_ D_
T.E +000_ +00_ D_
T.E +000_ +00_ D_
T.E +000_ +00_ D_
T.E +000_ +00_ C_
T.E -002_ +00_ C_
T.E +000_ +00_ C_
T.E +000_ +00_ C_
T.E +002_ +00_ B_
T.E +000_ +00_ B_
T.E +000_ +00_ B_
T.E -002_ +00_ B_
T.E +000_ +00_ B_
T.E +002_ +00_ A_
T.E +000_ +00_ A_
T.E -003_ +00_ A_
T.E +000_ +00_ A_
T.E +003_ +00_ A_
T.E +000_ +00_ 9_
T.E -003_ +00_ 9_
T.E -003_ +00_ 9_
T.E +000_ +00_ 9_
T.E +000_ +00_ 9_
T.E +003_ +00_ 9_
T.E +003_ +00_ 9_
T.E +000_ +00_ 9_
T.E +000_ +00_ 9_
T.E +002_ +00_ 9_
T.E +002_ +00_ 9_
T.E +000_ +00_ 9_
T.E -003_ +00_ 9_
T.E -003_ +00_ 9_
T.E +000_ +00_ 9_
T.E +003_ +00_ 9_
T.E +003_ +00_ 9_
T.E +000_ +00_ 9_
T.E -003_ +00_ 8_
T.E -003_ +00_ 8_
T.E +000_ +00_ 8_
T.E +003_ +00_ 8_
T.E +003_ +00_ 8_
T.E +000_ +00_ 8_
T.E -003_ +00_ 8_ L
T.E -003_ +00_ 8_
T.E +000_ +00_ 8_
T.E +003_ +00_ 8_
T.E +003_ +00_ 8_
T.E +000_ +00_ 8_

[Sample7]
T.E -004_ +00_ E_
T.E +000_ +00_ F_
T.E +000_ +00_ F_
T.E +000_ +00_ F_
T.E -001_ +00_ F_
T.E +000_ +00_ E_
T.E +000_ +00_ E_
T.E +000_ +00_ E_
T.E +001_ +00_ D_
T.E +000_ +00_ D_
T.E +000_ +00_ D_
T.E +000_ +00_ C_
T.E -001_ +00_ C_
T.E +000_ +00_ B_
T.E +000_ +00_ B_
T.E +000_ +00_ B_
T.E +000_ +00_ B_
T.E -002_ +00_ B_ L
T.E -004_ +00_ B_
T.E -002_ +00_ B_
T.E +000_ +00_ B_
T.E +002_ +00_ B_
T.E +004_ +00_ B_
T.E +002_ +00_ B_
T.E +000_ +00_ B_
T.E -002_ +00_ B_
T.E -004_ +00_ B_
T.E -002_ +00_ B_
T.E +000_ +00_ B_
T.E +002_ +00_ B_
T.E +004_ +00_ B_
T.E +002_ +00_ B_

[Sample8]
T.E +000_ +00_ F_
T.E +000_ +00_ E_
T.E +000_ +00_ E_
T.E +000_ +00_ D_
T.E +000_ +00_ D_
T.E +000_ +00_ D_
T.E +000_ +00_ C_
T.E +000_ +00_ C_
T.E +003_ +00_ C_
T.E +006_ +00_ C_
T.E +003_ +00_ C_
T.E +000_ +00_ C_
T.E -003_ +00_ B_
T.E -006_ +00_ B_
T.E -003_ +00_ B_
T.E +000_ +00_ B_
T.E +003_ +00_ B_
T.E +006_ +00_ B_
T.E +003_ +00_ B_
T.E +000_ +00_ B_
T.E -003_ +00_ A_
T.E -006_ +00_ A_
T.E -003_ +00_ A_
T.E +000_ +00_ A_
T.E +003_ +00_ A_
T.E +006_ +00_ A_
T.E +003_ +00_ A_
T.E +000_ +00_ A_
T.E -003_ +00_ 9_ L
T.E -006_ +00_ 9_
T.E -003_ +00_ 9_
T.E +000_ +00_ 9_
T.E +003_ +00_ 9_
T.E +006_ +00_ 9_
T.E +003_ +00_ 9_
T.E +000_ +00_ 9_

[Sample9]
T.E +007_ +00_ C_
T.E +006_ +00_ C_
T.E +003_ +00_ C_
T.E +000_ +00_ D_
T.E -003_ +00_ D_
T.E -006_ +00_ D_
T.E -003_ +00_ C_
T.E +000_ +00_ C_
T.E +003_ +00_ C_
T.E +006_ +00_ C_
T.E +003_ +00_ C_
T.E +000_ +00_ C_
T.E -003_ +00_ B_
T.E -006_ +00_ B_
T.E -003_ +00_ B_
T.E +000_ +00_ B_
T.E +003_ +00_ B_
T.E +006_ +00_ B_
T.E +003_ +00_ B_
T.E +000_ +00_ B_
T.E -003_ +00_ A_ L
T.E -006_ +00_ A_
T.E -003_ +00_ A_
T.E +000_ +00_ A_
T.E +003_ +00_ A_
T.E +006_ +00_ A_
T.E +003_ +00_ A_
T.E +000_ +00_ A_

[Sample10]
T.E +000_ +00_ F_
T.E +000_ +00_ E_
T.E +000_ +00_ E_
T.E +000_ +00_ D_
T.E +000_ +00_ D_
T.E +000_ +00_ D_
T.E +000_ +00_ C_
T.E +000_ +00_ C_
T.E +000_ +00_ C_
T.E +000_ +00_ C_
T.E +000_ +00_ C_
T.E +000_ +00_ C_
T.E -003_ +00_ B_
T.E -006_ +00_ B_
T.E -003_ +00_ B_
T.E +000_ +00_ B_
T.E +003_ +00_ B_
T.E +006_ +00_ B_
T.E +003_ +00_ B_
T.E +000_ +00_ B_
T.E -003_ +00_ A_ L
T.E -006_ +00_ A_
T.E -003_ +00_ A_
T.E +000_ +00_ A_
T.E +003_ +00_ A_
T.E +006_ +00_ A_
T.E +003_ +00_ A_
T.E +000_ +00_ A_

[Sample11]
T.E +000_ +00_ F_
T.E +000_ +00_ F_
T.E +000_ +00_ E_
T.E +000_ +00_ E_
T.E +000_ +00_ D_
T.E +000_ +00_ D_
T.E +000_ +00_ D_
T.E +000_ +00_ D_
T.E +000_ +00_ D_
T.E +000_ +00_ D_
T.E +000_ +00_ D_
T.E +000_ +00_ D_
T.E -003_ +00_ D_
T.E -006_ +00_ D_
T.E -003_ +00_ D_
T.E +000_ +00_ D_
T.E +003_ +00_ D_
T.E +006_ +00_ D_
T.E +003_ +00_ D_
T.E +000_ +00_ D_
T.E -004_ +00_ C_ L
T.E -008_ +00_ C_
T.E -004_ +00_ C_
T.E +000_ +00_ C_
T.E +004_ +00_ C_
T.E +008_ +00_ C_
T.E +004_ +00_ C_
T.E +000_ +00_ C_

[Sample12]
T.E +000_ +00_ F_
T.E +000_ +00_ D_
T.E +000_ +00_ D_
T.E +000_ +00_ C_
T.E +000_ +00_ C_
T.E +000_ +00_ D_
T.E +000_ +00_ C_
T.E +000_ +00_ A_
T.E +000_ +00_ A_
T.E +000_ +00_ A_
T.E +000_ +00_ A_
T.E +000_ +00_ A_
T.E +000_ +00_ 9_
T.E +000_ +00_ 9_
T.E +000_ +00_ 9_
T.E +000_ +00_ 9_
T.E +000_ +00_ 9_
T.E +000_ +00_ 9_
T.E +000_ +00_ 9_
T.E +000_ +00_ 9_
T.E +000_ +00_ 9_ L
T.E +000_ +00_ 9_
T.E +000_ +00_ 9_
T.E +000_ +00_ 9_
T.E +000_ +00_ 9_
T.E +000_ +00_ 9_
T.E +000_ +00_ 9_
T.E +000_ +00_ 9_

[Sample13]
... +000_ +00_ 0_ L

[Sample14]
... +000_ +00_ 0_ L

[Sample15]
... +000_ +00_ 0_ L

[Sample16]
... +000_ +00_ 0_ L

[Sample17]
... +000_ +00_ 0_ L

[Sample18]
T.. +200_ +00_ F_
T.. +300_ +00_ E_
T.. +400_ +00_ D_
..E +000_ +00_ E_ L

[Sample19]
TNE +120_ +00_ F_
T.E +140_ +00_ F_
TNE +1A0_ +00_ E_
.NE +000_ +03_ B_
.NE +000_ +06_ A_
.NE +000_ +0A_ 8_
.NE +000_ +0F_ 6_
TNE +000_ +00_ 0_ L

[Sample20]
.N. -FFE_ +03_ C_
.N. +000_ +03_ 7_
.N. +000_ +07_ 3_
.N. +000_ +08_ 3_
.N. +000_ +08_ 3_
.N. +000_ +08_ 3_
TN. +000_ +08_ 0_
T.E +000_ +00_ 0_
T.E +000_ +00_ 0_
T.E +000_ +00_ 0_
T.E +000_ +00_ 0_
T.E +000_ +00_ 0_
T.E +000_ +00_ 0_
T.E +000_ +00_ 0_
T.E +000_ +00_ 0_
T.E +000_ +00_ 0_
T.E +000_ +00_ 0_
T.E +000_ +00_ 0_
T.E +000_ +00_ 0_
T.E +000_ +00_ 0_
T.E +000_ +00_ 0_
T.E +000_ +00_ 0_
T.E +000_ +00_ 0_
T.E +000_ +00_ 0_
T.E +000_ +00_ 0_
T.E +000_ +00_ 0_
T.E +000_ +00_ 0_ L
T.E +000_ +00_ 0_
T.E +000_ +00_ 0_
T.E +000_ +00_ 0_
T.E +000_ +00_ 0_
T.E +000_ -01_ 0_

[Sample21]
.N. +000_ +00_ F_
.N. +000_ +00_ E_
.N. +000_ +00_ D_ L
.N. +000_ +00_ D-

[Sample22]
... +000_ +00_ 0_ L

[Sample23]
... +000_ +00_ 0_ L

[Sample24]
... +000_ +00_ 0_ L

[Sample25]
... +000_ +00_ 0_ L

[Sample26]
... +000_ +00_ 0_ L

[Sample27]
... +000_ +00_ 0_ L

[Sample28]
... +000_ +00_ 0_ L

[Sample29]
... +000_ +00_ 0_ L

[Sample30]
... +000_ +00_ 0_ L

[Sample31]
... +000_ +00_ 0_ L

[Pattern0]
....|..|--- .... ....|B-4 I..F ....|--- .... ....
....|..|--- .... ....|--- .... ....|--- .... ....
....|..|--- .... ....|C-5 K... ....|--- .... ....
....|..|--- .... ....|--- .... ....|--- .... ....
....|..|--- .... ....|C-5 .... ....|--- .... ....
....|..|--- .... ....|--- .... ....|--- .... ....
....|..|--- .... ....|C-5 .... ....|--- .... ....
....|..|--- .... ....|--- .... ....|--- .... ....
....|..|--- .... ....|C-5 .... ....|--- .... ....
....|..|--- .... ....|--- .... ....|--- .... ....
....|..|--- .... ....|C-5 .... ....|--- .... ....
....|..|--- .... ....|--- .... ....|--- .... ....
....|..|--- .... ....|C-5 .... ....|--- .... ....
....|..|--- .... ....|--- .... ....|--- .... ....
....|..|--- .... ....|C-5 .... ....|--- .... ....
....|..|--- .... ....|--- .... ....|--- .... ....
....|..|--- .... ....|C-5 .... ....|--- .... ....
....|..|--- .... ....|--- .... ....|--- .... ....
....|..|--- .... ....|C-5 .... ....|--- .... ....
....|..|--- .... ....|--- .... ....|--- .... ....
....|..|--- .... ....|C-5 .... ....|--- .... ....
....|..|--- .... ....|--- .... ....|--- .... ....
....|..|--- .... ....|C-5 .... ....|--- .... ....
....|..|--- .... ....|--- .... ....|--- .... ....
....|..|--- .... ....|C-5 .... ....|--- .... ....
....|..|--- .... ....|--- .... ....|--- .... ....
....|..|--- .... ....|C-5 .... ....|--- .... ....
....|..|--- .... ....|--- .... ....|--- .... ....
....|..|--- .... ....|B-4 I... ....|--- .... ....
....|..|--- .... ....|--- .... ....|--- .... ....
....|..|--- .... ....|C-5 K... ....|--- .... ....
....|..|--- .... ....|--- .... ....|--- .... ....
....|..|--- .... ....|B-4 I... ....|--- .... ....
....|..|--- .... ....|--- .... ....|--- .... ....
....|..|--- .... ....|C-5 K... ....|--- .... ....
....|..|--- .... ....|--- .... ....|--- .... ....
....|..|--- .... ....|C-5 .... ....|--- .... ....
....|..|--- .... ....|--- .... ....|--- .... ....
....|..|--- .... ....|C-5 .... ....|--- .... ....
....|..|--- .... ....|--- .... ....|--- .... ....
....|..|--- .... ....|C-5 .... ....|--- .... ....
....|..|--- .... ....|--- .... ....|--- .... ....
....|..|--- .... ....|C-5 .... ....|--- .... ....
....|..|--- .... ....|--- .... ....|--- .... ....
....|..|--- .... ....|C-5 .... ....|--- .... ....
....|..|--- .... ....|--- .... ....|--- .... ....
....|..|--- .... ....|C-5 .... ....|--- .... ....
....|..|--- .... ....|--- .... ....|--- .... ....
....|..|--- .... ....|C-5 .... ....|--- .... ....
....|..|--- .... ....|--- .... ....|--- .... ....
....|..|--- .... ....|C-5 .... ....|--- .... ....
....|..|--- .... ....|--- .... ....|--- .... ....
....|..|--- .... ....|C-5 .... ....|--- .... ....
....|..|--- .... ....|--- .... ....|--- .... ....
....|..|--- .... ....|C-5 .... ....|--- .... ....
....|..|--- .... ....|--- .... ....|--- .... ....
....|..|--- .... ....|C-5 J... ....|--- .... ....
....|..|--- .... ....|C-5 .... ....|--- .... ....
....|..|--- .... ....|C-5 K... ....|--- .... ....
....|..|--- .... ....|--- .... ....|--- .... ....
....|..|--- .... ....|C-5 J... ....|--- .... ....
....|..|--- .... ....|--- .... ....|--- .... ....
....|..|--- .... ....|C-5 .... ....|--- .... ....
....|..|--- .... ....|C-5 .... ....|--- .... ....

[Pattern1]
....|..|R-- .... ....|B-4 I... B..5|--- .... ....
....|..|--- .... ....|--- .... ....|D-5 2.FA ....
....|..|--- .... ....|C-5 K... ....|--- .... ....
....|..|--- .... ....|C-5 .... ....|A-4 .... ....
....|..|--- .... ....|C-5 .... ....|--- .... ....
....|..|--- .... ....|--- .... ....|F-4 .... ....
....|..|--- .... ....|C-5 .... ....|--- .... ....
....|..|--- .... ....|--- .... ....|A-4 .... ....
....|..|--- .... ....|C-5 J... ....|--- .... ....
....|..|--- .... ....|--- .... ....|C-5 .... ....
....|..|--- .... ....|C-5 L... ....|--- .... ....
....|..|--- .... ....|--- .... ....|A-4 .... ....
....|..|--- .... ....|B-4 I... ....|--- .... ....
....|..|--- .... ....|--- .... ....|C-5 .... ....
....|..|--- .... ....|C-5 J... ....|--- .... ....
....|..|--- .... ....|--- .... ....|E-5 .... ....
....|..|--- .... ....|C-5 K... ....|--- .... ....
....|..|--- .... ....|--- .... ....|C-5 .... ....
....|..|--- .... ....|C-5 .... ....|--- .... ....
....|..|--- .... ....|--- .... ....|E-5 .... ....
....|..|--- .... ....|B-4 I... ....|--- .... ....
....|..|--- .... ....|--- .... ....|G-5 .... ....
....|..|--- .... ....|C-5 K... ....|--- .... ....
....|..|--- .... ....|--- .... ....|E-5 .... ....
....|..|--- .... ....|C-5 J... ....|--- .... ....
....|..|--- .... ....|--- .... ....|G-5 .... ....
....|..|--- .... ....|C-5 K... ....|--- .... ....
....|..|--- .... ....|--- .... ....|B-5 .... ....
....|..|--- .... ....|B-4 I... ....|--- .... ....
....|..|--- .... ....|--- .... ....|G-5 .... ....
....|..|--- .... ....|C-5 L... ....|--- .... ....
....|..|--- .... ....|--- .... ....|E-5 .... ....
....|..|--- .... ....|B-4 I... ....|--- .... ....
....|..|--- .... ....|--- .... ....|C-5 .... ....
....|..|--- .... ....|C-5 K... ....|--- .... ....
....|..|--- .... ....|C-5 .... ....|B-4 .... ....
....|..|--- .... ....|C-5 .... ....|--- .... ....
....|..|--- .... ....|--- .... ....|G-4 .... ....
....|..|--- .... ....|C-5 .... ....|--- .... ....
....|..|--- .... ....|--- .... ....|B-4 .... ....
....|..|--- .... ....|C-5 J... ....|--- .... ....
....|..|--- .... ....|--- .... ....|D-5 .... ....
....|..|--- .... ....|C-5 K... ....|--- .... ....
....|..|--- .... ....|--- .... ....|B-4 .... ....
....|..|--- .... ....|B-4 I... ....|--- .... ....
....|..|--- .... ....|--- .... ....|D-5 .... ....
....|..|--- .... ....|C-5 J... ....|--- .... ....
....|..|--- .... ....|--- .... ....|F#5 .... ....
....|..|--- .... ....|C-5 K... ....|--- .... ....
....|..|--- .... ....|--- .... ....|D-5 .... ....
....|..|--- .... ....|C-5 .... ....|--- .... ....
....|..|--- .... ....|--- .... ....|F#5 .... ....
....|..|--- .... ....|B-4 I... ....|--- .... ....
....|..|--- .... ....|--- .... ....|A-5 .... ....
....|..|--- .... ....|B-4 .... ....|--- .... ....
....|..|--- .... ....|--- .... ....|F#5 .... ....
....|..|--- .... ....|C-5 J... ....|--- .... ....
....|..|--- .... ....|--- .... ....|A-5 .... ....
....|..|--- .... ....|C-5 K... ....|--- .... ....
....|..|--- .... ....|--- .... ....|C#6 .... ....
....|..|--- .... ....|B-4 I... ....|--- .... ....
....|..|--- .... ....|--- .... ....|A-5 .... ....
....|..|--- .... ....|C-5 J... ....|--- .... ....
....|..|--- .... ....|C-5 .... ....|F#5 1... ....

[Pattern2]
....|..|--- .... ....|B-4 I... ....|R-- 1..F ....
....|..|--- .... ....|--- .... ....|--- .... ....
....|..|--- .... ....|C-5 K... ....|--- 2..F ....
....|..|--- .... ....|C-5 .... ....|C-5 1..A ....
....|..|--- .... ....|C-5 .... ....|--- 3..F ....
....|..|--- .... ....|--- .... ....|G#4 2..A ....
....|..|--- .... ....|C-5 .... ....|--- 4..F ....
....|..|--- .... ....|--- .... ....|C-5 3..A ....
....|..|--- .... ....|C-5 J... ....|--- 5..F ....
....|..|--- .... ....|--- .... ....|D#5 4..A ....
....|..|--- .... ....|C-5 L... ....|--- 6..F ....
....|..|--- .... ....|--- .... ....|C-5 5..A ....
....|..|--- .... ....|B-4 I... ....|--- 7..F ....
....|..|--- .... ....|--- .... ....|D#5 6..A ....
....|..|--- .... ....|C-5 J... ....|--- 8..F ....
....|..|--- .... ....|--- .... ....|G-5 7..A ....
....|..|--- .... ....|C-5 K... ....|--- 9..F ....
....|..|--- .... ....|--- .... ....|D#5 8..A ....
....|..|--- .... ....|C-5 .... ....|--- A..F ....
....|..|--- .... ....|--- .... ....|G-5 9..A ....
....|..|--- .... ....|B-4 I... ....|--- B..F ....
....|..|--- .... ....|--- .... ....|A#5 A..A ....
....|..|--- .... ....|C-5 K... ....|--- C..F ....
....|..|--- .... ....|--- .... ....|G-5 B..A ....
....|..|--- .... ....|C-5 J... ....|--- D..F ....
....|..|--- .... ....|--- .... ....|A#5 C..A ....
....|..|--- .... ....|C-5 K... ....|--- E..F ....
....|..|--- .... ....|--- .... ....|D-6 D..A ....
....|..|--- .... ....|B-4 I... ....|--- F..F ....
....|..|--- .... ....|--- .... ....|A#5 E..A ....
....|..|--- .... ....|C-5 L... ....|--- G..F ....
....|..|--- .... ....|--- .... ....|G-5 F..A ....
....|..|--- .... ....|B-4 I... ....|--- G..F ....
....|..|--- .... ....|--- .... ....|C-5 G..A ....
....|..|--- .... ....|C-5 K... ....|--- F..F ....
....|..|--- .... ....|C-5 .... ....|C#5 G..A ....
....|..|--- .... ....|C-5 .... ....|--- E..F ....
....|..|--- .... ....|--- .... ....|A#4 F..A ....
....|..|--- .... ....|C-5 .... ....|--- D..F ....
....|..|--- .... ....|--- .... ....|C#5 E..A ....
....|..|--- .... ....|C-5 J... ....|--- C..F ....
....|..|--- .... ....|--- .... ....|F-5 D..A ....
....|..|--- .... ....|C-5 K... ....|--- B..F ....
....|..|--- .... ....|--- .... ....|C#5 C..A ....
....|..|--- .... ....|B-4 I... ....|--- A..F ....
....|..|--- .... ....|--- .... ....|F-5 B..A ....
....|..|--- .... ....|C-5 J... ....|--- 9..F ....
....|..|--- .... ....|--- .... ....|F#5 A..A ....
....|..|--- .... ....|C-5 K... ....|--- A..F ....
....|..|--- .... ....|--- .... ....|D#5 9..A ....
....|..|--- .... ....|C-5 .... ....|--- 7..F ....
....|..|--- .... ....|--- .... ....|F#5 8..A ....
....|..|--- .... ....|B-4 I... ....|--- 6..F ....
....|..|--- .... ....|--- .... ....|D#5 7..A ....
....|..|--- .... ....|B-4 .... ....|--- 5..F ....
....|..|--- .... ....|--- .... ....|F#5 6..A ....
....|..|--- .... ....|C-5 J... ....|--- 1..F 33..
....|..|--- .... ....|--- .... ....|--- 4... 2..2
....|..|--- .... ....|C-5 K... ....|--- 3... 2..2
....|..|--- .... ....|--- .... ....|--- 3... 2..2
....|..|--- .... ....|C-5 J... ....|--- 2... 6.91
....|..|--- .... ....|--- .... ....|--- 2... 6.A2
....|..|--- .... ....|C-5 .... ....|--- 1... 6.B3
....|..|--- .... ....|C-5 .... ....|--- 1... ....

[Pattern3]
....|..|--- .... ....|B-4 I... ....|--- .... ....
....|..|--- .... ....|--- .... ....|--- .... ....
....|..|--- .... ....|C-5 K... ....|--- .... ....
....|..|--- .... ....|C-5 .... ....|--- .... ....
....|..|--- .... ....|C-5 .... ....|--- .... ....
....|..|--- .... ....|--- .... ....|--- .... ....
....|..|--- .... ....|C-5 .... ....|--- .... ....
....|..|--- .... ....|--- .... ....|--- .... ....
....|..|--- .... ....|C-5 J... ....|--- .... ....
....|..|--- .... ....|--- .... ....|--- .... ....
....|..|--- .... ....|C-5 L... ....|--- .... ....
....|..|--- .... ....|--- .... ....|--- .... ....
....|..|--- .... ....|B-4 I... ....|--- .... ....
....|..|--- .... ....|--- .... ....|--- .... ....
....|..|--- .... ....|C-5 J... ....|--- .... ....
....|..|--- .... ....|--- .... ....|--- .... ....
....|..|--- .... ....|C-5 K... ....|--- .... ....
....|..|--- .... ....|--- .... ....|--- .... ....
....|..|--- .... ....|C-5 .... ....|--- .... ....
....|..|--- .... ....|--- .... ....|--- .... ....
....|..|--- .... ....|B-4 I... ....|--- .... ....
....|..|--- .... ....|--- .... ....|--- .... ....
....|..|--- .... ....|C-5 K... ....|--- .... ....
....|..|--- .... ....|--- .... ....|--- .... ....
....|..|--- .... ....|C-5 J... ....|--- .... ....
....|..|--- .... ....|--- .... ....|--- .... ....
....|..|--- .... ....|C-5 .... ....|--- .... ....
....|..|--- .... ....|--- .... ....|--- .... ....
....|..|--- .... ....|B-4 I... ....|--- .... ....
....|..|--- .... ....|--- .... ....|--- .... ....
....|..|--- .... ....|C-5 L... ....|--- .... ....
....|..|--- .... ....|--- .... ....|--- .... ....
....|..|--- .... ....|B-4 I... ....|--- .... ....
....|..|--- .... ....|--- .... ....|--- .... ....
....|..|--- .... ....|C-5 K... ....|--- .... ....
....|..|--- .... ....|C-5 .... ....|--- .... ....
....|..|--- .... ....|C-5 .... ....|--- .... ....
....|..|--- .... ....|--- .... ....|--- .... ....
....|..|--- .... ....|C-5 .... ....|--- .... ....
....|..|--- .... ....|--- .... ....|--- .... ....
....|..|--- .... ....|C-5 J... ....|--- .... ....
....|..|--- .... ....|--- .... ....|--- .... ....
....|..|--- .... ....|C-5 K... ....|--- .... ....
....|..|--- .... ....|--- .... ....|--- .... ....
....|..|--- .... ....|B-4 I... ....|--- .... ....
....|..|--- .... ....|--- .... ....|--- .... ....
....|..|--- .... ....|--- .... ....|--- .... ....
....|..|--- .... ....|--- .... ....|--- .... ....
....|..|--- .... ....|--- .... ....|--- .... ....
....|..|--- .... ....|--- .... ....|--- .... ....
....|..|--- .... ....|--- .... ....|--- .... ....
....|..|--- .... ....|--- .... ....|--- .... ....
....|..|--- .... ....|--- .... ....|--- .... ....
....|..|--- .... ....|--- .... ....|--- .... ....
....|..|--- .... ....|A-3 1..8 ....|--- .... ....
....|..|--- .... ....|--- .... ....|--- .... ....
....|..|--- .... ....|F#3 .... ....|--- .... ....
....|..|--- .... ....|--- .... ....|--- .... ....
....|..|--- .... ....|A-3 .... ....|--- .... ....
....|..|--- .... ....|--- .... ....|--- .... ....
....|..|--- .... ....|C#4 .... ....|--- .... ....
....|..|--- .... ....|--- .... ....|--- .... ....
....|..|--- .... ....|A-3 .... ....|--- .... ....
....|..|--- .... ....|--- .... ....|--- .... ....

[Pattern4]
....|..|E-2 2... ....|B-4 I... B..5|--- .... ....
....|..|--- .... ....|--- .... ....|--- .... ....
....|..|--- .... ....|C-5 K... ....|--- .... ....
....|..|--- .... ....|C-5 .... ....|--- .... ....
....|..|--- .... ....|C-5 .... ....|--- .... ....
....|..|--- .... ....|--- .... ....|--- .... ....
....|..|E-2 .... ....|C-5 .... ....|--- .... ....
....|..|--- .... ....|--- .... ....|--- .... ....
....|..|E-2 .... ....|C-5 J... ....|--- .... ....
....|..|--- .... ....|--- .... ....|--- .... ....
....|..|E-3 .... ....|C-5 L... ....|--- .... ....
....|..|--- .... ....|--- .... ....|--- .... ....
....|..|B-2 .... ....|B-4 I... ....|--- .... ....
....|..|--- .... ....|--- .... ....|A-5 4..A ....
....|..|--- .... ....|C-5 J... ....|A#5 .... 33A0
....|..|--- .... ....|--- .... ....|B-5 .... 33A0
....|..|--- .... ....|C-5 K... ....|--- .... ....
....|..|--- .... ....|--- .... ....|--- .... ....
....|..|--- .... ....|C-5 .... ....|--- .... ....
....|..|--- .... ....|--- .... ....|--- .... ....
....|..|--- .... ....|B-4 I... ....|--- .... ....
....|..|--- .... ....|--- .... ....|--- .... ....
....|..|--- .... ....|C-5 K... ....|--- .... ....
....|..|--- .... ....|--- .... ....|--- .... ....
....|..|B-2 .... ....|C-5 J... ....|--- .... ....
....|..|--- .... ....|--- .... ....|--- .... ....
....|..|--- .... ....|C-5 K... ....|--- .... ....
....|..|--- .... ....|--- .... ....|D-6 1... ....
....|..|E-2 .... ....|B-4 I... ....|--- .... ....
....|..|--- .... ....|--- .... ....|--- .... ....
....|..|F#2 .... 33..|C-5 L... ....|--- .... ....
....|..|G#2 .F.. 3330|--- .... ....|--- .... ....
....|..|A-2 .... ....|B-4 I... ....|--- .... ....
....|..|--- .... ....|--- .... ....|--- .... ....
....|..|--- .... ....|C-5 K... ....|--- .... ....
....|..|--- .... ....|C-5 .... ....|A-5 .... ....
....|..|--- .... ....|C-5 .... ....|B-5 .... 33A0
....|..|--- .... ....|--- .... ....|--- .... ....
....|..|A-2 .... ....|C-5 .... ....|--- .... ....
....|..|--- .... ....|--- .... ....|--- .... ....
....|..|A-2 .... ....|C-5 J... ....|--- .... ....
....|..|--- .... ....|--- .... ....|--- .... ....
....|..|B-2 .... ....|C-5 K... ....|--- .... ....
....|..|--- .... ....|--- .... ....|--- .... ....
....|..|C-3 ..F. ....|B-4 I... ....|--- .... ....
....|..|--- .... ....|--- .... ....|--- .... ....
....|..|--- .... ....|C-5 J... ....|--- .... ....
....|..|--- .... ....|--- .... ....|G-5 .... ....
....|..|--- .... ....|C-5 K... ....|--- .... ....
....|..|--- .... ....|--- .... ....|--- .... ....
....|..|--- .... ....|C-5 .... ....|--- .... ....
....|..|--- .... ....|--- .... ....|--- .... ....
....|..|--- .... ....|B-4 I... ....|--- .... ....
....|..|--- .... ....|--- .... ....|--- .... ....
....|..|--- .... ....|B-4 .... ....|--- .... ....
....|..|--- .... ....|--- .... ....|--- .... ....
....|..|--- .... ....|C-5 J... ....|--- .... ....
....|..|--- .... ....|--- .... ....|--- .... ....
....|..|--- .... ....|C-5 K... ....|--- .... ....
....|..|--- .... ....|--- .... ....|--- .... ....
....|..|--- .... ....|B-4 I... ....|--- .... ....
....|..|--- .... ....|--- .... ....|--- .... ....
....|..|--- .... ....|C-5 J... ....|--- .... ....
....|..|--- .... ....|C-5 .... ....|--- .... ....

[Pattern5]
....|..|R-- .... ....|R-- .... B..5|R-- .... ....
....|..|--- .... ....|--- .... ....|--- .... ....
....|..|--- .... ....|--- .... ....|--- .... ....
....|..|--- .... ....|--- .... ....|--- .... ....
....|..|--- .... ....|--- .... ....|--- .... ....
....|..|--- .... ....|--- .... ....|--- .... ....
....|..|--- .... ....|--- .... ....|--- .... ....
....|..|--- .... ....|--- .... ....|--- .... ....
....|..|--- .... ....|--- .... ....|--- .... ....
....|..|--- .... ....|--- .... ....|--- .... ....
....|..|--- .... ....|--- .... ....|--- .... ....
....|..|--- .... ....|--- .... ....|--- .... ....
....|..|--- .... ....|--- .... ....|--- .... ....
....|..|--- .... ....|--- .... ....|--- .... ....
....|..|--- .... ....|--- .... ....|--- .... ....
....|..|--- .... ....|--- .... ....|--- .... ....
....|..|--- .... ....|--- .... ....|--- .... ....
....|..|--- .... ....|--- .... ....|--- .... ....
....|..|--- .... ....|--- .... ....|--- .... ....
....|..|--- .... ....|--- .... ....|--- .... ....
....|..|--- .... ....|--- .... ....|--- .... ....
....|..|--- .... ....|--- .... ....|--- .... ....
....|..|--- .... ....|--- .... ....|--- .... ....
....|..|--- .... ....|--- .... ....|--- .... ....
....|..|--- .... ....|--- .... ....|--- .... ....
....|..|--- .... ....|--- .... ....|--- .... ....
....|..|--- .... ....|--- .... ....|--- .... ....
....|..|--- .... ....|--- .... ....|--- .... ....
....|..|--- .... ....|--- .... ....|--- .... ....
....|..|--- .... ....|--- .... ....|--- .... ....
....|..|--- .... ....|--- .... ....|--- .... ....
....|..|--- .... ....|--- .... ....|--- .... ....
....|..|--- .... ....|--- .... ....|--- .... ....
....|..|--- .... ....|--- .... ....|--- .... ....
....|..|--- .... ....|--- .... ....|--- .... ....
....|..|--- .... ....|--- .... ....|--- .... ....
....|..|--- .... ....|--- .... ....|--- .... ....
....|..|--- .... ....|--- .... ....|--- .... ....
....|..|--- .... ....|--- .... ....|--- .... ....
....|..|--- .... ....|--- .... ....|--- .... ....
....|..|--- .... ....|--- .... ....|--- .... ....
....|..|--- .... ....|--- .... ....|--- .... ....
....|..|--- .... ....|--- .... ....|--- .... ....
....|..|--- .... ....|--- .... ....|--- .... ....
....|..|--- .... ....|--- .... ....|--- .... ....
....|..|--- .... ....|--- .... ....|--- .... ....
....|..|--- .... ....|--- .... ....|--- .... ....
....|..|--- .... ....|--- .... ....|--- .... ....
....|..|--- .... ....|--- .... ....|--- .... ....
....|..|--- .... ....|--- .... ....|--- .... ....
....|..|--- .... ....|--- .... ....|--- .... ....
....|..|--- .... ....|--- .... ....|--- .... ....
....|..|--- .... ....|--- .... ....|--- .... ....
....|..|--- .... ....|--- .... ....|--- .... ....
....|..|--- .... ....|--- .... ....|--- .... ....
....|..|--- .... ....|--- .... ....|--- .... ....
....|..|--- .... ....|--- .... ....|--- .... ....
....|..|--- .... ....|--- .... ....|--- .... ....
....|..|--- .... ....|--- .... ....|--- .... ....
....|..|--- .... ....|--- .... ....|--- .... ....
....|..|--- .... ....|--- .... ....|--- .... ....
....|..|--- .... ....|--- .... ....|--- .... ....
....|..|--- .... ....|--- .... ....|--- .... ....
....|..|--- .... ....|--- .... ....|--- .... ....

[Pattern6]
....|..|E-2 2... ....|B-4 I... B..5|--- .... ....
....|..|--- .... ....|--- .... ....|--- .... ....
....|..|--- .... ....|C-5 K... ....|E-5 4.5A ....
....|..|--- .... ....|C-5 .... ....|F-5 1.68 33A0
....|..|--- .... ....|C-5 .... ....|F#5 4.5A 33A0
....|..|--- .... ....|--- .... ....|--- .... ....
....|..|E-2 .... ....|C-5 .... ....|--- .... ....
....|..|--- .... ....|--- .... ....|--- .... ....
....|..|E-2 .... ....|C-5 J... ....|--- .... ....
....|..|--- .... ....|--- .... ....|--- .... ....
....|..|E-3 .... ....|C-5 L... ....|--- .... ....
....|..|--- .... ....|--- .... ....|--- .... ....
....|..|B-2 .... ....|B-4 I... ....|--- .... ....
....|..|--- .... ....|--- .... ....|--- .... ....
....|..|--- .... ....|C-5 J... ....|--- .... ....
....|..|--- .... ....|--- .... ....|--- .... ....
....|..|--- .... ....|C-5 K... ....|--- .... ....
....|..|--- .... ....|--- .... ....|--- .... ....
....|..|--- .... ....|C-5 .... ....|--- .... ....
....|..|--- .... ....|--- .... ....|--- .... ....
....|..|--- .... ....|B-4 I... ....|--- .... ....
....|..|--- .... ....|--- .... ....|--- .... ....
....|..|--- .... ....|C-5 K... ....|--- .... ....
....|..|--- .... ....|--- .... ....|--- .... ....
....|..|B-2 .... ....|C-5 J... ....|--- .... ....
....|..|--- .... ....|--- .... ....|--- .... ....
....|..|--- .... ....|C-5 K... ....|--- .... ....
....|..|--- .... ....|--- .... ....|--- .... ....
....|..|E-2 .... ....|B-4 I... ....|--- .... ....
....|..|--- .... ....|--- .... ....|--- .... ....
....|..|F#2 .... ....|C-5 L... ....|--- .... ....
....|..|G#2 .F.. 3330|--- .... ....|--- .... ....
....|..|F#2 .... ....|B-4 I... ....|--- .... ....
....|..|--- .... ....|--- .... ....|--- .... ....
....|..|--- .... ....|C-5 K... ....|E-5 .... ....
....|..|--- .... ....|C-5 .... ....|F#5 1.F. 33A0
....|..|--- .... ....|C-5 .... ....|--- .... ....
....|..|--- .... ....|--- .... ....|--- .... ....
....|..|F#2 .... ....|C-5 .... ....|--- .... ....
....|..|--- .... ....|--- .... ....|--- .... ....
....|..|F#2 .... ....|C-5 J... ....|A-5 .... ....
....|..|--- .... ....|--- .... ....|--- .... ....
....|..|C#3 .... ....|C-5 K... ....|--- .... ....
....|..|--- .... ....|--- .... ....|--- .... ....
....|..|G#2 .... ....|B-4 I... ....|--- .... ....
....|..|--- .... ....|--- .... ....|--- .... ....
....|..|--- .... ....|C-5 J... ....|F#5 .... ....
....|..|--- .... ....|--- .... ....|G#5 .... 33A0
....|..|--- .... ....|C-5 K... ....|--- .... ....
....|..|--- .... ....|--- .... ....|--- .... ....
....|..|--- .... ....|C-5 .... ....|--- .... ....
....|..|--- .... ....|--- .... ....|--- .... ....
....|..|--- .... ....|B-4 I... ....|--- .... ....
....|..|--- .... ....|--- .... ....|--- .... ....
....|..|G#2 .... ....|B-4 .... ....|--- .... ....
....|..|--- .... ....|--- .... ....|--- .... ....
....|..|C#2 .... ....|C-5 J... ....|E-5 .... ....
....|..|--- .... ....|--- .... ....|--- .... ....
....|..|G#2 .... ....|C-5 K... ....|--- .... ....
....|..|--- .... ....|--- .... ....|--- .... ....
....|..|C#3 .... ....|B-4 I... ....|--- .... ....
....|..|--- .... ....|--- .... ....|--- .... ....
....|..|--- .... ....|C-5 J... ....|B-4 .... ....
....|..|--- .... ....|C-5 .... ....|--- .... ....

[Pattern7]
....|..|E-2 2... ....|B-4 I... ....|--- .... ....
....|..|--- .... ....|--- .... ....|--- .... ....
....|..|--- .... ....|C-5 K... ....|B-4 1..A ....
....|..|--- .... ....|C-5 .... ....|--- .... ....
....|..|--- .... ....|C-5 .... ....|--- .... ....
....|..|--- .... ....|--- .... ....|--- .... ....
....|..|E-2 .... ....|C-5 .... ....|--- .... ....
....|..|--- .... ....|--- .... ....|--- .... ....
....|..|E-2 .... ....|C-5 J... ....|--- .... ....
....|..|--- .... ....|--- .... ....|--- .... ....
....|..|E-3 .... ....|C-5 L... ....|--- .... ....
....|..|--- .... ....|--- .... ....|--- .... ....
....|..|B-2 .... ....|B-4 I... ....|--- .... ....
....|..|--- .... ....|--- .... ....|--- .... ....
....|..|--- .... ....|C-5 J... ....|E-5 .... ....
....|..|--- .... ....|--- .... ....|--- .... ....
....|..|--- .... ....|C-5 K... ....|--- .... ....
....|..|--- .... ....|--- .... ....|--- .... ....
....|..|--- .... ....|C-5 .... ....|--- .... ....
....|..|--- .... ....|--- .... ....|--- .... ....
....|..|--- .... ....|B-4 I... ....|--- .... ....
....|..|--- .... ....|--- .... ....|--- .... ....
....|..|--- .... ....|C-5 K... ....|--- .... ....
....|..|--- .... ....|--- .... ....|--- .... ....
....|..|B-2 .... ....|C-5 J... ....|--- .... ....
....|..|--- .... ....|--- .... ....|--- .... ....
....|..|--- .... ....|C-5 K... ....|A-5 .... ....
....|..|--- .... ....|--- .... ....|--- .... ....
....|..|E-2 .... ....|B-4 I... ....|--- .... ....
....|..|--- .... ....|--- .... ....|--- .... ....
....|..|F#2 .... ....|C-5 L... ....|--- .... ....
....|..|G#2 .... 3.30|--- .... ....|--- .... ....
....|..|F#2 .... ....|B-4 I... ....|--- .... ....
....|..|--- .... ....|--- .... ....|--- .... ....
....|..|--- .... ....|C-5 K... ....|C#5 .... ....
....|..|--- .... ....|C-5 .... ....|--- .... ....
....|..|--- .... ....|C-5 .... ....|--- .... ....
....|..|--- .... ....|--- .... ....|--- .... ....
....|..|F#2 .... ....|C-5 .... ....|A-4 .... ....
....|..|--- .... ....|--- .... ....|--- .... ....
....|..|F#2 .... ....|C-5 J... ....|--- .... ....
....|..|--- .... ....|--- .... ....|--- .... ....
....|..|C#3 .... ....|C-5 K... ....|F#5 .... ....
....|..|--- .... ....|--- .... ....|--- .... ....
....|..|D#2 .... 6.81|B-4 I... ....|--- .... ....
....|..|--- .... ....|--- .... ....|--- .... ....
....|..|--- .... ....|C-5 J... ....|B-4 .... ....
....|..|--- .... ....|--- .... ....|C#5 .... 33A0
....|..|--- .... ....|C-5 K... ....|--- .... ....
....|..|--- .... ....|--- .... ....|--- .... ....
....|..|--- .... ....|C-5 .... ....|--- .... ....
....|..|--- .... ....|--- .... ....|--- .... ....
....|..|--- .... ....|B-4 I... ....|--- .... ....
....|..|--- .... ....|--- .... ....|--- .... ....
....|..|G#2 .... ....|B-4 .... ....|--- .... ....
....|..|--- .... ....|--- .... ....|--- .... ....
....|..|D#2 .... ....|C-5 J... ....|--- .... ....
....|..|--- .... ....|--- .... ....|--- .... ....
....|..|A#2 .... ....|C-5 K... ....|--- .... ....
....|..|--- .... ....|--- .... ....|--- .... ....
....|..|D#3 .... ....|C-5 J... ....|--- .... ....
....|..|--- .... ....|--- .... ....|--- .... ....
....|..|--- .... ....|C-5 .... ....|B-4 .... ....
....|..|--- .... ....|C-5 .... ....|C#5 .... ....

[Pattern8]
....|..|E-2 2... ....|B-4 I... B..5|--- .... ....
....|..|--- .... ....|--- .... ....|--- .... ....
....|..|--- .... ....|C-5 K... ....|E-5 4.FA ....
....|..|--- .... ....|C-5 .... ....|F-5 1..8 3.A0
....|..|--- .... ....|C-5 .... ....|F#5 4..A 3.A0
....|..|--- .... ....|--- .... ....|--- .... 6.92
....|..|E-2 .... ....|C-5 .... ....|--- .... ....
....|..|--- .... ....|--- .... ....|--- .... ....
....|..|E-2 .... ....|C-5 J... ....|--- .... ....
....|..|--- .... ....|--- .... ....|--- .... ....
....|..|E-3 .... ....|C-5 L... ....|--- .... ....
....|..|--- .... ....|--- .... ....|--- .... ....
....|..|B-2 .... ....|B-4 I... ....|--- .... ....
....|..|--- .... ....|--- .... ....|--- .... ....
....|..|--- .... ....|C-5 J... ....|--- .... ....
....|..|--- .... ....|--- .... ....|--- .... ....
....|..|--- .... ....|C-5 K... ....|--- .... ....
....|..|--- .... ....|--- .... ....|--- .... ....
....|..|--- .... ....|C-5 .... ....|--- .... ....
....|..|--- .... ....|--- .... ....|--- .... ....
....|..|--- .... ....|B-4 I... ....|--- .... ....
....|..|--- .... ....|--- .... ....|--- .... ....
....|..|--- .... ....|C-5 K... ....|--- .... ....
....|..|--- .... ....|--- .... ....|--- .... ....
....|..|B-2 .... ....|C-5 J... ....|--- .... ....
....|..|--- .... ....|--- .... ....|--- .... ....
....|..|--- .... ....|C-5 K... ....|--- .... ....
....|..|--- .... ....|--- .... ....|--- .... ....
....|..|E-2 .... ....|B-4 I... ....|--- .... ....
....|..|--- .... ....|--- .... ....|--- .... ....
....|..|F#2 .... ....|C-5 L... ....|--- .... ....
....|..|G#2 .F.. 3330|--- .... ....|--- .... ....
....|..|F#2 .... ....|B-4 I... ....|--- .... ....
....|..|--- .... ....|--- .... ....|--- .... ....
....|..|--- .... ....|C-5 K... ....|E-5 .... ....
....|..|--- .... ....|C-5 .... ....|F#5 1... 3.A0
....|..|--- .... ....|C-5 .... ....|--- .... ....
....|..|--- .... ....|--- .... ....|--- .... ....
....|..|F#2 .... ....|C-5 .... ....|--- .... ....
....|..|--- .... ....|--- .... ....|--- .... ....
....|..|F#2 .... ....|C-5 J... ....|A-5 .... ....
....|..|--- .... ....|--- .... ....|--- .... ....
....|..|C#3 .... ....|C-5 K... ....|--- .... ....
....|..|--- .... ....|--- .... ....|--- .... ....
....|..|G#2 .... ....|B-4 I... ....|--- .... ....
....|..|--- .... ....|--- .... ....|--- .... ....
....|..|--- .... ....|C-5 J... ....|F#5 .... ....
....|..|--- .... ....|--- .... ....|G#5 .... 3.A0
....|..|--- .... ....|C-5 K... ....|--- .... ....
....|..|--- .... ....|--- .... ....|--- .... ....
....|..|--- .... ....|C-5 .... ....|--- .... ....
....|..|--- .... ....|--- .... ....|--- .... ....
....|..|--- .... ....|B-4 I... ....|--- .... ....
....|..|--- .... ....|--- .... ....|--- .... ....
....|..|G#2 .... ....|B-4 .... ....|--- .... ....
....|..|--- .... ....|--- .... ....|--- .... ....
....|..|C#2 .... ....|C-5 J... ....|E-5 .... ....
....|..|--- .... ....|--- .... ....|--- .... ....
....|..|G#2 .... ....|C-5 K... ....|--- .... ....
....|..|--- .... ....|--- .... ....|--- .... ....
....|..|C#3 .... ....|B-4 I... ....|--- .... ....
....|..|--- .... ....|--- .... ....|--- .... ....
....|..|--- .... ....|C-5 J... ....|B-4 .... ....
....|..|--- .... ....|C-5 .... ....|--- .... ....

[Pattern9]
....|..|--- .... ....|B-4 I... ....|C#4 3..8 1...
....|..|--- .... ....|--- .... ....|--- .... ....
....|..|--- .... ....|C-5 K... ....|F-4 2... ....
....|..|--- .... ....|--- .... ....|--- .... ....
....|..|--- .... ....|C-5 .... ....|D-4 1... ....
....|..|--- .... ....|--- .... ....|--- .... ....
....|..|--- .... ....|C-5 .... ....|A-3 .... ....
....|..|--- .... ....|--- .... ....|--- .... ....
....|..|--- .... ....|C-5 .... ....|F-3 2... ....
....|..|--- .... ....|--- .... ....|--- .... ....
....|..|--- .... ....|C-5 .... ....|A-3 3... ....
....|..|--- .... ....|--- .... ....|--- .... ....
....|..|--- .... ....|C-5 .... ....|C-4 4... ....
....|..|--- .... ....|--- .... ....|--- .... ....
....|..|--- .... ....|C-5 .... ....|A-3 5... ....
....|..|--- .... ....|--- .... ....|--- .... ....
....|..|--- .... ....|C-5 .... ....|C-4 6... ....
....|..|--- .... ....|--- .... ....|--- .... ....
....|..|--- .... ....|C-5 .... ....|E-4 7... ....
....|..|--- .... ....|--- .... ....|--- .... ....
....|..|--- .... ....|C-5 .... ....|C-4 8... ....
....|..|--- .... ....|--- .... ....|--- .... ....
....|..|--- .... ....|C-5 .... ....|E-4 9... ....
....|..|--- .... ....|--- .... ....|--- .... ....
....|..|--- .... ....|C-5 .... ....|G-4 A... ....
....|..|--- .... ....|--- .... ....|--- .... ....
....|..|--- .... ....|C-5 .... ....|E-4 B... ....
....|..|--- .... ....|--- .... ....|--- .... ....
....|..|--- .... ....|B-4 I... ....|G-4 C... ....
....|..|--- .... ....|--- .... ....|--- .... ....
....|..|--- .... ....|C-5 K... ....|B-4 D... ....
....|..|--- .... ....|--- .... ....|--- .... ....
....|..|--- .... ....|B-4 I... ....|G-4 E... ....
....|..|--- .... ....|--- .... ....|--- .... ....
....|..|--- .... ....|C-5 K... ....|E-4 F... ....
....|..|--- .... ....|--- .... ....|--- .... ....
....|..|--- .... ....|C-5 .... ....|C-4 G... ....
....|..|--- .... ....|--- .... ....|--- .... ....
....|..|--- .... ....|C-5 .... ....|B-3 .... ....
....|..|--- .... ....|--- .... ....|--- .... ....
....|..|--- .... ....|C-5 .... ....|G-3 F... ....
....|..|--- .... ....|--- .... ....|--- .... ....
....|..|--- .... ....|C-5 .... ....|B-3 E... ....
....|..|--- .... ....|--- .... ....|--- .... ....
....|..|--- .... ....|C-5 .... ....|D-4 D... ....
....|..|--- .... ....|--- .... ....|--- .... ....
....|..|--- .... ....|C-5 .... ....|B-3 C... ....
....|..|--- .... ....|--- .... ....|--- .... ....
....|..|--- .... ....|C-5 .... ....|D-4 B... ....
....|..|--- .... ....|--- .... ....|--- .... ....
....|..|--- .... ....|C-5 .... ....|F#4 A... ....
....|..|--- .... ....|--- .... ....|--- .... ....
....|..|--- .... ....|C-5 .... ....|D-4 9... ....
....|..|--- .... ....|--- .... ....|--- .... ....
....|..|--- .... ....|C-5 .... ....|F#4 8... ....
....|..|--- .... ....|--- .... ....|--- .... ....
....|..|--- .... ....|C-5 J... ....|A-4 7... ....
....|..|--- .... ....|C-5 .... ....|--- .... ....
....|..|--- .... ....|C-5 K... ....|F#4 6... ....
....|..|--- .... ....|--- .... ....|--- .... ....
....|..|--- .... ....|C-5 J... ....|A-4 5... ....
....|..|--- .... ....|--- .... ....|--- .... ....
....|..|--- .... ....|C-5 .... ....|C#5 4... ....
....|..|--- .... ....|C-5 .... ....|--- .... ....

[Pattern10]
....|..|--- ...A ....|B-4 I... B..5|--- .... ....
....|..|--- .... ....|--- .... ....|--- .... ....
....|..|D-5 1F.. ....|C-5 K... ....|--- .... ....
....|..|--- .... ....|C-5 .... ....|--- .... ....
....|..|A-4 .... ....|C-5 .... ....|--- .... ....
....|..|--- .... ....|--- .... ....|--- .... ....
....|..|F-4 2... ....|C-5 .... ....|--- .... ....
....|..|--- .... ....|--- .... ....|--- .... ....
....|..|A-4 .... ....|C-5 J... ....|--- .... ....
....|..|--- .... ....|--- .... ....|--- .... ....
....|..|C-5 3... ....|C-5 L... ....|--- .... ....
....|..|--- .... ....|--- .... ....|--- .... ....
....|..|A-4 .... ....|B-4 I... ....|--- .... ....
....|..|--- .... ....|--- .... ....|--- .... ....
....|..|C-5 4... ....|C-5 J... ....|--- .... ....
....|..|--- .... ....|--- .... ....|--- .... ....
....|..|E-5 .... ....|C-5 K... ....|--- .... ....
....|..|--- .... ....|--- .... ....|--- .... ....
....|..|C-5 5... ....|C-5 .... ....|--- .... ....
....|..|--- .... ....|--- .... ....|--- .... ....
....|..|E-5 .... ....|B-4 I... ....|--- .... ....
....|..|--- .... ....|--- .... ....|--- .... ....
....|..|G-5 4... ....|C-5 K... ....|--- .... ....
....|..|--- .... ....|--- .... ....|--- .... ....
....|..|E-5 .... ....|C-5 J... ....|--- .... ....
....|..|--- .... ....|--- .... ....|--- .... ....
....|..|G-5 3... ....|C-5 K... ....|--- .... ....
....|..|--- .... ....|--- .... ....|--- .... ....
....|..|B-5 .... ....|B-4 I... ....|--- .... ....
....|..|--- .... ....|--- .... ....|--- .... ....
....|..|G-5 2... ....|C-5 L... ....|--- .... ....
....|..|--- .... ....|--- .... ....|--- .... ....
....|..|E-5 .... ....|B-4 I... ....|--- .... ....
....|..|--- .... ....|--- .... ....|--- .... ....
....|..|C-5 1... ....|C-5 K... ....|--- .... ....
....|..|--- .... ....|C-5 .... ....|--- .... ....
....|..|B-4 .... ....|C-5 .... ....|--- .... ....
....|..|--- .... ....|--- .... ....|--- .... ....
....|..|G-4 2... ....|C-5 .... ....|--- .... ....
....|..|--- .... ....|--- .... ....|--- .... ....
....|..|B-4 .... ....|C-5 J... ....|--- .... ....
....|..|--- .... ....|--- .... ....|--- .... ....
....|..|D-5 3... ....|C-5 K... ....|--- .... ....
....|..|--- .... ....|--- .... ....|--- .... ....
....|..|B-4 .... ....|B-4 I... ....|--- .... ....
....|..|--- .... ....|--- .... ....|--- .... ....
....|..|D-5 4... ....|C-5 J... ....|--- .... ....
....|..|--- .... ....|--- .... ....|--- .... ....
....|..|F#5 .... ....|C-5 K... ....|--- .... ....
....|..|--- .... ....|--- .... ....|--- .... ....
....|..|D-5 5... ....|C-5 .... ....|--- .... ....
....|..|--- .... ....|--- .... ....|--- .... ....
....|..|F#5 .... ....|B-4 I... ....|--- .... ....
....|..|--- .... ....|--- .... ....|--- .... ....
....|..|A-5 4... ....|B-4 .... ....|--- .... ....
....|..|--- .... ....|--- .... ....|--- .... ....
....|..|F#5 .... ....|C-5 J... ....|--- .... ....
....|..|--- .... ....|--- .... ....|--- .... ....
....|..|A-5 3... ....|C-5 K... ....|--- .... ....
....|..|--- .... ....|--- .... ....|--- .... ....
....|..|C#6 .... ....|B-4 I... ....|--- .... ....
....|..|--- .... ....|--- .... ....|--- .... ....
....|..|A-5 2... ....|C-5 J... ....|--- .... ....
....|..|--- .... ....|C-5 .... ....|--- .... ....

[Pattern11]
....|..|F-2 6..F ....|B-4 I... B..5|R-- .... ....
....|..|--- .... ....|--- .... ....|--- .... ....
....|..|--- .... ....|C-5 K... ....|--- .... ....
....|..|--- .... ....|C-5 .... ....|--- .... ....
....|..|--- .... ....|C-5 .... ....|--- .... ....
....|..|--- .... ....|--- .... ....|A-4 1FFA ....
....|..|F-2 .... ....|C-5 .... ....|--- .... ....
....|..|--- .... ....|--- .... ....|B-4 2... ....
....|..|F-2 .... ....|C-5 J... ....|--- .... ....
....|..|--- .... ....|--- .... ....|C-5 3... ....
....|..|F-3 .... ....|C-5 L... ....|--- .... ....
....|..|--- .... ....|--- .... ....|--- .... ....
....|..|C-3 .... ....|B-4 I... ....|--- .... ....
....|..|--- .... ....|--- .... ....|--- .... ....
....|..|--- .... ....|C-5 J... ....|--- .... ....
....|..|--- .... ....|--- .... ....|--- .... ....
....|..|--- .... ....|C-5 K... ....|--- .... ....
....|..|--- .... ....|--- .... ....|D-4 4... ....
....|..|--- .... ....|C-5 .... ....|--- .... ....
....|..|--- .... ....|--- .... ....|E-4 3... ....
....|..|--- .... ....|B-4 I... ....|--- .... ....
....|..|--- .... ....|--- .... ....|G-4 2... ....
....|..|--- .... ....|C-5 K... ....|--- .... ....
....|..|--- .... ....|--- .... ....|--- .... ....
....|..|C-3 .... ....|C-5 J... ....|--- .... ....
....|..|--- .... ....|--- .... ....|--- .... ....
....|..|--- .... ....|C-5 K... ....|--- .... ....
....|..|--- .... ....|--- .... ....|--- .... ....
....|..|F-2 .... ....|B-4 I... ....|--- .... ....
....|..|--- .... ....|--- .... ....|E-4 1... ....
....|..|G-2 .... 33..|C-5 L... ....|--- .... ....
....|..|A-2 .F.. 3330|--- .... ....|F-4 2... ....
....|..|G-2 .... ....|B-4 I... ....|--- .... ....
....|..|--- .... ....|--- .... ....|G-4 3... ....
....|..|--- .... ....|C-5 K... ....|--- .... ....
....|..|--- .... ....|C-5 .... ....|A-4 4... ....
....|..|--- .... ....|C-5 .... ....|--- .... ....
....|..|--- .... ....|--- .... ....|D-4 .... ....
....|..|G-2 .... ....|C-5 .... ....|E-4 .... 3320
....|..|--- .... ....|--- .... ....|--- .... ....
....|..|G-2 .... ....|C-5 J... ....|--- .... ....
....|..|--- .... ....|--- .... ....|G-4 2... ....
....|..|D-3 .... ....|C-5 K... ....|--- .... ....
....|..|--- .... ....|--- .... ....|G-4 1... ....
....|..|A-2 .... ....|B-4 I... ....|A-4 .... 3330
....|..|--- .... ....|--- .... ....|--- .... ....
....|..|--- .... ....|C-5 J... ....|--- .... ....
....|..|--- .... ....|--- .... ....|F#4 2... ....
....|..|--- .... ....|C-5 K... ....|--- .... ....
....|..|--- .... ....|--- .... ....|D-4 3... ....
....|..|--- .... ....|C-5 .... ....|--- .... ....
....|..|--- .... ....|--- .... ....|C#4 4... ....
....|..|--- .... ....|B-4 I... ....|--- .... ....
....|..|--- .... ....|--- .... ....|--- .... ....
....|..|A-2 .... ....|B-4 .... ....|--- .... ....
....|..|--- .... ....|--- .... ....|E-4 5... ....
....|..|D-2 .... ....|C-5 J... ....|--- .... ....
....|..|--- .... ....|--- .... ....|D-4 4... ....
....|..|A-2 .... ....|C-5 K... ....|--- .... ....
....|..|--- .... ....|--- .... ....|C#4 3... ....
....|..|D-3 .... ....|B-4 I... ....|--- .... ....
....|..|--- .... ....|--- .... ....|A-4 2... ....
....|..|--- .... ....|C-5 J... ....|--- .... ....
....|..|--- .... ....|C-5 .... ....|E-4 1... ....

[Pattern12]
....|..|F-2 1F.. ....|B-4 I... B..5|--- .... ....
....|..|--- .... ....|--- .... ....|--- .... ....
....|..|--- .... ....|C-5 K... ....|--- .... ....
....|..|R-- .... ....|C-5 .... ....|--- .... ....
....|..|F-2 .... ....|C-5 .... ....|--- .... ....
....|..|--- .... ....|--- .... ....|--- .... ....
....|..|F-2 .... ....|C-5 .... ....|C-4 1F.A ....
....|..|--- .... ....|--- .... ....|--- .... ....
....|..|F-2 .... ....|C-5 J... ....|--- .... ....
....|..|--- .... ....|--- .... ....|--- .... ....
....|..|F-3 .... ....|C-5 L... ....|--- .... ....
....|..|--- .... ....|--- .... ....|--- .... ....
....|..|C-3 .... ....|B-4 I... ....|--- .... ....
....|..|--- .... ....|--- .... ....|--- .... ....
....|..|--- .... ....|C-5 J... ....|G-3 4... ....
....|..|--- .... ....|--- .... ....|--- .... ....
....|..|--- .... ....|C-5 K... ....|A-3 5... ....
....|..|--- .... ....|--- .... ....|--- .... ....
....|..|C-2 .... ....|C-5 .... ....|E-4 4... ....
....|..|--- .... ....|--- .... ....|--- .... ....
....|..|G-2 .... ....|B-4 I... ....|--- .... ....
....|..|--- .... ....|--- .... ....|--- .... ....
....|..|--- .... ....|C-5 K... ....|--- .... ....
....|..|--- .... ....|--- .... ....|--- .... ....
....|..|--- .... ....|C-5 J... ....|--- .... ....
....|..|--- .... ....|--- .... ....|--- .... ....
....|..|G-2 .... ....|C-5 K... ....|G-4 1... ....
....|..|--- .... ....|--- .... ....|A-4 .... ....
....|..|F-2 .... ....|B-4 I... ....|--- .... ....
....|..|--- .... ....|--- .... ....|--- .... ....
....|..|G-2 .... 33..|C-5 L... ....|--- .... ....
....|..|A-2 .F.. 3330|--- .... ....|--- .... ....
....|..|G-2 .... ....|B-4 I... ....|F-4 4... ....
....|..|--- .... ....|--- .... ....|F#4 .... 33A0
....|..|--- .... ....|C-5 K... ....|G-4 .... 33A0
....|..|--- .... ....|C-5 .... ....|--- .... ....
....|..|--- .... ....|C-5 .... ....|--- .... ....
....|..|--- .... ....|--- .... ....|--- .... ....
....|..|G-2 .... ....|C-5 .... ....|A-4 5... ....
....|..|--- .... ....|--- .... ....|B-4 .... 33A0
....|..|G-2 .... ....|C-5 J... ....|--- .... ....
....|..|--- .... ....|--- .... ....|--- .... ....
....|..|D-3 .... ....|C-5 K... ....|C-5 3... ....
....|..|--- .... ....|--- .... ....|--- .... ....
....|..|A-2 .... ....|B-4 I... ....|A-4 .... ....
....|..|--- .... ....|--- .... ....|B-4 .... 33A0
....|..|--- .... ....|C-5 J... ....|--- .... ....
....|..|--- .... ....|--- .... ....|--- .... ....
....|..|--- .... ....|C-5 K... ....|A-4 1... ....
....|..|--- .... ....|--- .... ....|--- .... ....
....|..|A-2 .... ....|C-5 .... ....|C#5 .... ....
....|..|--- .... ....|--- .... ....|D-5 2... 33A0
....|..|--- .... ....|B-4 I... ....|C#5 .... 33A0
....|..|--- .... ....|--- .... ....|--- .... ....
....|..|A-2 .... ....|B-4 .... ....|A-4 .... ....
....|..|--- .... ....|--- .... ....|--- .... ....
....|..|D-2 .... ....|C-5 J... ....|B-4 3... ....
....|..|--- .... ....|--- .... ....|--- .... ....
....|..|A-2 .... ....|C-5 K... ....|E-4 4... ....
....|..|--- .... ....|--- .... ....|--- .... ....
....|..|D-3 .... ....|B-4 I... ....|B-3 5... ....
....|..|--- .... ....|--- .... ....|--- .... ....
....|..|--- .... ....|C-5 J... ....|C#4 6... ....
....|..|--- .... ....|C-5 .... ....|--- .... ....

[Pattern13]
....|..|D#2 1... ....|B-4 I... B..5|--- .... ....
....|..|--- .... ....|--- .... ....|--- .... ....
....|..|--- .... ....|C-5 K... ....|--- .... ....
....|..|--- .... ....|C-5 .... ....|--- .... ....
....|..|--- .... ....|C-5 .... ....|C-4 1..A ....
....|..|--- .... ....|--- .... ....|--- .... ....
....|..|D#2 .... ....|C-5 .... ....|--- .... ....
....|..|--- .... ....|--- .... ....|--- .... ....
....|..|D#2 .... ....|C-5 J... ....|--- .... ....
....|..|--- .... ....|--- .... ....|--- .... ....
....|..|D#3 .... ....|C-5 L... ....|D#4 4... ....
....|..|--- .... ....|--- .... ....|--- .... ....
....|..|A#2 .... ....|B-4 I... ....|--- .... ....
....|..|--- .... ....|--- .... ....|--- .... ....
....|..|--- .... ....|C-5 J... ....|--- .... ....
....|..|--- .... ....|--- .... ....|--- .... ....
....|..|--- .... ....|C-5 K... ....|D-4 6... ....
....|..|--- .... ....|--- .... ....|--- .... ....
....|..|--- .... 1..1|C-5 .... ....|--- .... ....
....|..|--- .... ....|--- .... ....|--- .... ....
....|..|--- .... 2..1|B-4 I... ....|A#3 8... ....
....|..|--- .... ....|--- .... ....|--- .... ....
....|..|--- .... 1..2|C-5 K... ....|--- .... ....
....|..|--- .... ....|--- .... ....|--- .... ....
....|..|A#2 .... ....|C-5 J... ....|--- .... ....
....|..|--- .... ....|--- .... ....|--- .... ....
....|..|--- .... ....|C-5 K... ....|G-3 A... ....
....|..|--- .... ....|--- .... ....|--- .... ....
....|..|D#2 .... ....|B-4 I... ....|G#3 9... ....
....|..|--- .... ....|--- .... ....|--- .... ....
....|..|F-2 .... 33..|C-5 L... ....|A#3 8... ....
....|..|G-2 .F.. 3330|--- .... ....|--- .... ....
....|..|G#2 .... ....|B-4 I... ....|D-4 7... ....
....|..|--- .... ....|--- .... ....|--- .... ....
....|..|--- .... ....|C-5 K... ....|A#3 6... ....
....|..|--- .... ....|C-5 .... ....|--- .... ....
....|..|--- .... ....|C-5 .... ....|E-4 5... ....
....|..|--- .... ....|--- .... ....|F-4 .... ....
....|..|G#2 .... ....|C-5 .... ....|--- .... ....
....|..|--- .... ....|--- .... ....|--- .... ....
....|..|G#2 .... ....|C-5 J... ....|G#4 3... ....
....|..|--- .... ....|--- .... ....|--- .... ....
....|..|A#2 .... ....|C-5 K... ....|B-4 2... ....
....|..|--- .... ....|--- .... ....|C-5 .... ....
....|..|B-2 .... ....|B-4 I... ....|--- .... ....
....|..|--- .... ....|--- .... ....|--- .... ....
....|..|--- .... ....|C-5 J... ....|D#5 .... ....
....|..|--- .... ....|--- .... ....|--- .... ....
....|..|--- .... ....|C-5 K... ....|C-5 3... ....
....|..|--- .... ....|--- .... ....|A#4 .... ....
....|..|--- .... ....|C-5 .... ....|--- .... ....
....|..|--- .... ....|--- .... ....|--- .... ....
....|..|--- .... ....|B-4 I... ....|--- .... ....
....|..|--- .... ....|--- .... ....|A#4 5... ....
....|..|F#2 .... ....|B-4 .... ....|--- .... ....
....|..|--- .... ....|--- .... ....|--- .... ....
....|..|--- .... ....|C-5 J... ....|--- .... ....
....|..|--- .... ....|--- .... ....|A#4 7..1 ....
....|..|F-2 .... ....|C-5 K... ....|--- .... ....
....|..|--- .... ....|--- .... ....|--- .... ....
....|..|--- .... ....|B-4 I... ....|--- .... ....
....|..|--- .... ....|--- .... ....|--- .... ....
....|..|--- .... ....|C-5 J... ....|--- .... ....
....|..|--- .... ....|C-5 .... ....|--- .... ....

[Pattern14]
....|..|F-2 2..F ....|B-4 I... B..5|--- .... ....
....|..|--- .... ....|--- .... ....|D-5 2.FA ....
....|..|--- .... ....|C-5 K... ....|--- .... ....
....|..|--- .... ....|C-5 .... ....|A-4 .... ....
....|..|--- .... ....|C-5 .... ....|--- .... ....
....|..|--- .... ....|--- .... ....|F-4 .... ....
....|..|F-2 .... ....|C-5 .... ....|--- .... ....
....|..|--- .... ....|--- .... ....|A-4 .... ....
....|..|F-2 .... ....|C-5 J... ....|--- .... ....
....|..|--- .... ....|--- .... ....|C-5 .... ....
....|..|F-3 .... ....|C-5 L... ....|--- .... ....
....|..|--- .... ....|--- .... ....|A-4 .... ....
....|..|C-3 .... ....|B-4 I... ....|--- .... ....
....|..|--- .... ....|--- .... ....|C-5 .... ....
....|..|--- .... ....|C-5 J... ....|--- .... ....
....|..|--- .... ....|--- .... ....|E-5 .... ....
....|..|--- .... ....|C-5 K... ....|--- .... ....
....|..|--- .... ....|--- .... ....|C-5 .... ....
....|..|--- .... ....|C-5 .... ....|--- .... ....
....|..|--- .... ....|--- .... ....|E-5 .... ....
....|..|--- .... ....|B-4 I... ....|--- .... ....
....|..|--- .... ....|--- .... ....|G-5 .... ....
....|..|--- .... ....|C-5 K... ....|--- .... ....
....|..|--- .... ....|--- .... ....|E-5 .... ....
....|..|C-3 .... ....|C-5 J... ....|--- .... ....
....|..|--- .... ....|--- .... ....|G-5 .... ....
....|..|--- .... ....|C-5 K... ....|--- .... ....
....|..|--- .... ....|--- .... ....|B-5 .... ....
....|..|F-2 .... ....|B-4 I... ....|--- .... ....
....|..|--- .... ....|--- .... ....|G-5 .... ....
....|..|G-2 .... ....|C-5 L... ....|--- .... ....
....|..|A-2 .F.. 3330|--- .... ....|E-5 .... ....
....|..|G-2 .... 3381|B-4 I... ....|--- .... ....
....|..|--- .... ....|--- .... ....|C-5 .... ....
....|..|--- .... ....|C-5 K... ....|--- .... ....
....|..|--- .... ....|C-5 .... ....|B-4 .... ....
....|..|--- .... ....|C-5 .... ....|--- .... ....
....|..|--- .... ....|--- .... ....|G-4 .... ....
....|..|G-2 .... ....|C-5 .... ....|--- .... ....
....|..|--- .... ....|--- .... ....|B-4 .... ....
....|..|G-2 .... ....|C-5 J... ....|--- .... ....
....|..|--- .... ....|--- .... ....|D-5 .... ....
....|..|D-3 .... ....|C-5 K... ....|--- .... ....
....|..|--- .... ....|--- .... ....|B-4 .... ....
....|..|A-2 .... ....|B-4 I... ....|--- .... ....
....|..|--- .... ....|--- .... ....|D-5 .... ....
....|..|--- .... ....|C-5 J... ....|--- .... ....
....|..|--- .... ....|--- .... ....|F#5 .... ....
....|..|--- .... ....|C-5 K... ....|--- .... ....
....|..|--- .... ....|--- .... ....|D-5 .... ....
....|..|--- .... ....|C-5 .... ....|--- .... ....
....|..|--- .... ....|--- .... ....|F#5 .... ....
....|..|--- .... ....|B-4 I... ....|--- .... ....
....|..|--- .... ....|--- .... ....|A-5 .... ....
....|..|A-2 .... ....|B-4 .... ....|--- .... ....
....|..|--- .... ....|--- .... ....|F#5 .... ....
....|..|D-2 .... ....|C-5 J... ....|--- .... ....
....|..|--- .... ....|--- .... ....|A-5 .... ....
....|..|A-2 .... ....|C-5 K... ....|--- .... ....
....|..|--- .... ....|--- .... ....|C#6 .... ....
....|..|D-3 .... ....|B-4 I... ....|--- .... ....
....|..|--- .... ....|--- .... ....|A-5 .... ....
....|..|--- .... ....|C-5 J... ....|--- .... ....
....|..|--- .... ....|C-5 .... ....|F#5 1... ....

[Module]
VortexTrackerII=1
Version=3.7
Title=origAmigaMod
Author=kbx128/tesko!
NoteTable=2
ChipFreq=1773400
IntFreq=50000
Speed=5
Noise=HEX
PlayOrder=L0,0,1,1,2,3,2,4,5,6,5,6,7,0,0,1,1,8,8,9,10,9,11


[Ornament1]
L0

[Ornament2]
L0

[Ornament3]
L0

[Ornament4]
L0

[Ornament5]
0,0,12,12,L0,0

[Ornament6]
L0,0,0,4,4,4,7,7,7

[Ornament7]
L0,0,0,3,3,3,7,7,7

[Ornament8]
L0,0,0,5,5,5,9,9,9

[Ornament9]
L0,0,0,5,5,5,8,8,8

[Ornament10]
L0,0,0,2,2,2,7,7,7

[Ornament11]
L0,0,0,5,5,5,8,7,7

[Ornament12]
L0,0,0,4,4,4,11,11,11

[Ornament13]
L0,0,0,8,8,8,5,5,5

[Ornament14]
L0

[Ornament15]
L0

[Sample1]
T.. -002_ +00_ E_
T.. -001_ +00_ E_
T.. +000_ +00_ E_
T.. +000_ +00_ E_
T.. +000_ +00_ E_
T.. +000_ +00_ D_
T.. +000_ +00_ D_
T.. +000_ +00_ D_
T.. +000_ +00_ D_
T.. -002_ +00_ D_
T.. -004_ +00_ D_
T.. -002_ +00_ C_
T.. +000_ +00_ C_
T.. +004_ +00_ C_
T.. +007_ +00_ C_
T.. +004_ +00_ C_
T.. +000_ +00_ C_
T.. -003_ +00_ C_
T.. -006_ +00_ C_
T.. -003_ +00_ C_
T.. +000_ +00_ C_
T.. +003_ +00_ C_
T.. +006_ +00_ C_
T.. +003_ +00_ C_
T.. +000_ +00_ C_
T.. -003_ +00_ C_ L
T.. -006_ +00_ C_
T.. -003_ +00_ C_
T.. +000_ +00_ C_
T.. +003_ +00_ C_
T.. +006_ +00_ C_
T.. +003_ +00_ C_

[Sample2]
T.. +001^ +00_ F_
T.. +000_ +00_ F_
T.. +000_ +00_ F_
T.. +000_ +00_ E_ L
T.. +000_ +00_ E-

[Sample3]
T.. +000_ +00_ F_
T.. +000_ +00_ E_
T.. +000_ +00_ E_
T.. +000_ +00_ D_
T.. +000_ +00_ D_
T.. +000_ +00_ C_
T.. +000_ +00_ C_
T.. +000_ +00_ C_
T.. +000_ +00_ B_ L
T.. +000_ +00_ B_
T.. +000_ +00_ B_
T.. +000_ +00_ B-

[Sample4]
T.. +000_ +00_ F_
T.. +000_ +00_ E_
T.. +000_ +00_ E_
T.. +000_ +00_ D_
T.. +000_ +00_ D_
T.. +000_ +00_ C_
T.. +000_ +00_ C_
T.. +000_ +00_ C_
T.. +000_ +00_ B_ L
T.. +000_ +00_ B_
T.. +000_ +00_ B_
T.. +000_ +00_ B-

[Sample5]
T.. +000_ +00_ F_
T.. +000_ +00_ F_
T.. +000_ +00_ E_
T.. +000_ +00_ E_
T.. +000_ +00_ D_
T.. +000_ +00_ D- L

[Sample6]
T.. +000_ +00_ F_
T.. +000_ +00_ F_
T.. +000_ +00_ E_
T.. +000_ +00_ E_
T.. +000_ +00_ E_
T.. +000_ +00_ D_
T.. +000_ +00_ D_
T.. +000_ +00_ D_
T.. +005_ +00_ C_ L
T.. +009_ +00_ C_
T.. +005_ +00_ C_
T.. +000_ +00_ C_
T.. -005_ +00_ C_
T.. -009_ +00_ C_
T.. -005_ +00_ C_
T.. +000_ +00_ C_

[Sample7]
T.. +000_ +00_ F_
T.. +000_ +00_ F_
T.. +000_ +00_ E_
T.. +000_ +00_ E_
T.. +000_ +00_ D_
T.. +000_ +00_ C_
T.. +000_ +00_ B_
T.. +000_ +00_ A_
T.. +000_ +00_ 9_
T.. +000_ +00_ 6_ L

[Sample8]
T.. +000_ +00_ F_
T.. +000_ +00_ E_
T.. +000_ +00_ D_ L
T.. +001_ +00_ D_
T.. +002_ +00_ D_
T.. +001_ +00_ D-

[Sample9]
T.. -002_ +00_ E_
T.. -001_ +00_ D_
T.. +000_ +00_ C_ L
T.. +001_ +00_ C_
T.. +000_ +00_ C_
T.. -001_ +00_ C_

[Sample10]
T.. +00A_ +00_ F_
T.. +008_ +00_ F_
T.. +006_ +00_ F_
T.. +004_ +00_ F_
T.. +002_ +00_ F_
T.. +000_ +00_ F_
T.. -002_ +00_ F_
T.. -004_ +00_ F_
T.. -006_ +00_ F_
T.. -008_ +00_ F_
T.. -00A_ +00_ F_
T.. +000_ +00_ 0_ L

[Sample11]
T.. -002_ +00_ E_
T.. -001_ +00_ D_
T.. +000_ +00_ C_ L
T.. +001_ +00_ C_
T.. +000_ +00_ C_
T.. -001_ +00_ C_

[Sample12]
T.. +000_ +00_ F_
T.. +000_ +00_ E_
T.. +000_ +00_ D_ L
T.. +001_ +00_ D_
T.. +002_ +00_ D_
T.. +001_ +00_ D-

[Sample13]
T.. +000_ +00_ F_
T.. +000_ +00_ F_
T.. +000_ +00_ E_
T.. +000_ +00_ E_
T.. +000_ +00_ D_
T.. +000_ +00_ C_
T.. +000_ +00_ B_
T.. +000_ +00_ A_
T.. +000_ +00_ 9_
T.. +000_ +00_ 6_ L

[Sample14]
T.. +000_ +00_ F_
T.. +000_ +00_ F_
T.. +000_ +00_ E_
T.. +000_ +00_ E_
T.. +000_ +00_ E_
T.. +000_ +00_ D_
T.. +000_ +00_ D_
T.. +000_ +00_ D_
T.. +005_ +00_ C_ L
T.. +009_ +00_ C_
T.. +005_ +00_ C_
T.. +000_ +00_ C_
T.. -005_ +00_ C_
T.. -009_ +00_ C_
T.. -005_ +00_ C_
T.. +000_ +00_ C_

[Sample15]
T.. +000_ +00_ F_
T.. +000_ +00_ F_
T.. +000_ +00_ E_
T.. +000_ +00_ E_
T.. +000_ +00_ D_
T.. +000_ +00_ D- L

[Sample16]
T.. +000_ -01_ F_
T.. +000_ +00_ F_
T.. +000_ +00_ F_
T.. +000_ +00_ E_
T.. +000_ +00_ E_
T.. +000_ +00_ D_
T.. +000_ +00_ D_
T.. +000_ +00_ C_
T.. +000_ +00_ C_
T.. +000_ +00_ B_
T.. +000_ +00_ B_
T.. +000_ +00_ B_
T.. +000_ +00_ A_
T.. +000_ +00_ A_
T.. +000_ +00_ 9_
T.. +000_ +00_ 9_
T.. +000_ +00_ 8_ L

[Sample17]
T.E +000_ +00_ F_
T.E +000_ +00_ E_
T.E +000_ +00_ E_
T.E +000_ +00_ E_
T.E +000_ +00_ E_
T.E +000_ +00_ E_
T.E +000_ +00_ E_
T.E +000_ +00_ E_
T.E +000_ +00_ E_
T.E +000_ +00_ E_
T.E +000_ +00_ E_
T.E +000_ +00_ E_
T.E +000_ +00_ E_
T.E +000_ +00_ D_
T.E +000_ +00_ D_
T.E +000_ +00_ D_
T.. +000_ +00_ D_
T.. +000_ +00_ D_
T.. +000_ +00_ D_
T.. +000_ +00_ D_
T.. +000_ +00_ D_
T.. +000_ +00_ D_
T.. +000_ +00_ C_
T.. +000_ +00_ C_ L
T.. +000_ +00_ C_
T.. +000_ +00_ B-
T.. +000_ +00_ B_

[Sample18]
... +000_ +00_ 0_ L

[Sample19]
... +000_ +00_ 0_ L

[Sample20]
... +000_ +00_ 0_ L

[Sample21]
... +000_ +00_ 0_ L

[Sample22]
... +000_ +00_ 0_ L

[Sample23]
... +000_ +00_ 0_ L

[Sample24]
... +000_ +00_ 0_ L

[Sample25]
... +000_ +00_ 0_ L

[Sample26]
... +000_ +00_ 0_ L

[Sample27]
... +000_ +00_ 0_ L

[Sample28]
... +000_ +00_ 0_ L

[Sample29]
... +000_ +00_ 0_ L

[Sample30]
... +000_ +00_ 0_ L

[Sample31]
... +000_ +00_ 0_ L

[Pattern0]
....|..|A-4 1.FF B..5|C#5 3.F8 1...|--- .... ....
....|..|--- .... ....|--- .... ....|D-5 1.FA ....
....|..|F-4 2... ....|F-5 2... ....|--- .... ....
....|..|--- .... ....|--- .... ....|A-4 .... ....
....|..|A-4 3... ....|D-5 1... ....|--- .... ....
....|..|--- .... ....|--- .... ....|F-4 2... ....
....|..|C-5 4... ....|A-4 .... ....|--- .... ....
....|..|--- .... ....|--- .... ....|A-4 3... ....
....|..|A-4 5... ....|F-4 2... ....|--- .... ....
....|..|--- .... ....|--- .... ....|C-5 4... ....
....|..|C-5 6... ....|A-4 3... ....|--- .... ....
....|..|--- .... ....|--- .... ....|A-4 5... ....
....|..|E-5 7... ....|C-5 4... ....|--- .... ....
....|..|--- .... ....|--- .... ....|C-5 6... ....
....|..|C-5 8... ....|A-4 5... ....|--- .... ....
....|..|--- .... ....|--- .... ....|E-5 7... ....
....|..|E-5 9... ....|C-5 6... ....|--- .... ....
....|..|--- .... ....|--- .... ....|C-5 8... ....
....|..|G-5 A... ....|E-5 7... ....|--- .... ....
....|..|--- .... ....|--- .... ....|E-5 9... ....
....|..|E-5 B... ....|C-5 8... ....|--- .... ....
....|..|--- .... ....|--- .... ....|G-5 A... ....
....|..|G-5 C1.. ....|E-5 9... ....|--- .... ....
....|..|--- .... ....|--- .... ....|E-5 B1.. ....
....|..|B-5 D... ....|G-5 A... ....|--- .... ....
....|..|--- .... ....|--- .... ....|G-5 C... ....
....|..|G-5 E... ....|E-5 B... ....|--- .... ....
....|..|--- .... ....|--- .... ....|B-5 D... ....
....|..|E-5 F... ....|G-5 C... ....|--- .... ....
....|..|--- .... ....|--- .... ....|G-5 E... ....
....|..|C-5 G... ....|B-5 D... ....|--- .... ....
....|..|--- .... ....|--- .... ....|E-5 F... ....
....|..|B-4 .... ....|G-5 E... ....|--- .... ....
....|..|--- .... ....|--- .... ....|C-5 G... ....
....|..|G-4 F... ....|E-5 F... ....|--- .... ....
....|..|--- .... ....|--- .... ....|B-4 .... ....
....|..|B-4 E... ....|C-5 G... ....|--- .... ....
....|..|--- .... ....|--- .... ....|G-4 F... ....
....|..|D-5 D... ....|B-4 .... ....|--- .... ....
....|..|--- .... ....|--- .... ....|B-4 E... ....
....|..|B-4 C... ....|G-4 F... ....|--- .... ....
....|..|--- .... ....|--- .... ....|D-5 D... ....
....|..|D-5 B... ....|B-4 E... ....|--- .... ....
....|..|--- .... ....|--- .... ....|B-4 C... ....
....|..|F#5 A... ....|D-5 D... ....|--- .... ....
....|..|--- .... ....|--- .... ....|D-5 B... ....
....|..|D-5 9... ....|B-4 C... ....|--- .... ....
....|..|--- .... ....|--- .... ....|F#5 A... ....
....|..|F#5 8... ....|D-5 B... ....|--- .... ....
....|..|--- .... ....|--- .... ....|D-5 9... ....
....|..|A-5 7... ....|F#5 A... ....|--- .... ....
....|..|--- .... ....|--- .... ....|F#5 8... ....
....|..|F#5 6... ....|D-5 9... ....|--- .... ....
....|..|--- .... ....|--- .... ....|A-5 7... ....
....|..|A-5 5... ....|F#5 8... ....|--- .... ....
....|..|--- .... ....|--- .... ....|F#5 6... ....
....|..|C#6 4... ....|A-5 7... ....|--- .... ....
....|..|--- .... ....|--- .... ....|A-5 5... ....
....|..|A-5 3... ....|F#5 6... ....|--- .... ....
....|..|--- .... ....|--- .... ....|C#6 4... ....
....|..|F#5 2... ....|A-5 5... ....|--- .... ....
....|..|--- .... ....|--- .... ....|A-5 3... ....
....|..|D-5 1... ....|C#6 4... ....|--- .... ....
....|..|--- .... ....|--- .... ....|F#5 2... ....

[Pattern1]
..27|..|A-4 1..F B..5|F-3 H8.. ....|--- .... ....
....|..|--- .... ....|--- .... ....|D-5 1..A ....
....|..|F-4 2... ....|--- .... ....|--- .... ....
....|..|--- .... ....|--- .... ....|A-4 .... ....
....|..|A-4 3... ....|--- .... ....|--- .... ....
....|..|--- .... ....|--- .... ....|F-4 2... ....
....|..|C-5 4... ....|--- .... ....|--- .... ....
....|..|--- .... ....|--- .... ....|A-4 3... ....
..34|..|A-4 5... ....|C-3 .8.. ....|--- .... ....
....|..|--- .... ....|--- .... ....|C-5 4... ....
....|..|C-5 6... ....|--- .... ....|--- .... ....
....|..|--- .... ....|--- .... ....|A-4 5... ....
..46|..|E-5 7... ....|G-2 .8.. ....|--- .... ....
....|..|--- .... ....|--- .... ....|C-5 6... ....
....|..|C-5 8... ....|--- .... ....|--- .... ....
....|..|--- .... ....|--- .... ....|E-5 7... ....
....|..|E-5 9... ....|--- .... ....|--- .... ....
....|..|--- .... ....|--- .... ....|C-5 8... ....
..46|..|G-5 A... ....|G-2 .8.. ....|--- .... ....
....|..|--- .... ....|--- .... ....|E-5 9... ....
..53|..|E-5 B... ....|E-2 .8.. ....|--- .... ....
....|..|--- .... ....|--- .... ....|G-5 A... ....
....|..|G-5 C... ....|--- .... ....|--- .... ....
....|..|--- .... ....|--- .... ....|E-5 B1.. ....
....|..|B-5 D... ....|--- .... ....|--- .... ....
....|..|--- .... ....|--- .... ....|G-5 C... ....
..53|..|G-5 E... ....|E-2 .8.. ....|--- .... ....
....|..|--- .... ....|--- .... ....|B-5 D... ....
..2A|..|E-5 F... ....|E-3 .8.. ....|--- .... ....
....|..|--- .... ....|--- .... ....|G-5 E... ....
..34|..|C-5 G... ....|C-3 .8.. ....|--- .... ....
....|..|--- .... ....|--- .... ....|E-5 F... ....
..37|..|B-4 .... ....|B-2 .8.. ....|--- .... ....
....|..|--- .... ....|--- .... ....|C-5 G... ....
....|..|G-4 F... ....|--- .... ....|--- .... ....
....|..|--- .... ....|--- .... ....|B-4 .... ....
....|..|B-4 E... ....|--- .... ....|--- .... ....
....|..|--- .... ....|--- .... ....|G-4 F... ....
..37|..|D-5 D... ....|B-2 .8.. ....|--- .... ....
....|..|--- .... ....|--- .... ....|B-4 E... ....
....|..|B-4 C... ....|--- .... ....|--- .... ....
....|..|--- .... ....|--- .... ....|D-5 D... ....
..46|..|D-5 B... ....|G-2 .8.. ....|--- .... ....
..37|..|--- .... ....|B-2 .8.. ....|B-4 C... ....
..2A|..|F#5 A... ....|E-3 .8.. ....|--- .... ....
....|..|--- .... ....|--- .... ....|D-5 B... ....
....|..|D-5 9... ....|--- .... ....|--- .... ....
....|..|--- .... ....|--- .... ....|F#5 A... ....
....|..|F#5 8... ....|--- .... ....|--- .... ....
....|..|--- .... ....|--- .... ....|D-5 9... ....
....|..|A-5 7... ....|--- .... ....|--- .... ....
....|..|--- .... ....|--- .... ....|F#5 8... ....
..2A|..|F#5 6... ....|E-3 .8.. 3...|--- .... ....
....|..|--- .... ....|F#3 .F.. 3330|A-5 7... ....
....|..|A-5 5... ....|--- .... ....|--- .... ....
....|..|--- .... ....|--- .... ....|F#5 6... ....
....|..|C#6 4... ....|--- .... ....|--- .... ....
....|..|--- .... ....|--- .... ....|A-5 5... ....
....|..|A-5 3... ....|--- .... ....|--- .... ....
....|..|--- .... ....|--- .... ....|C#6 4... ....
....|..|F#5 2... ....|--- .... ....|--- .... ....
....|..|--- .... ....|--- .... ....|A-5 3... ....
..2F|..|D-5 1... ....|D-3 .8.. ....|--- .... ....
....|..|--- .... ....|--- .... ....|F#5 2... ....

[Pattern2]
..4E|..|A-4 1..F ....|F-2 H8.. ....|F-5 1... ....
....|..|--- ...A ....|--- .... ....|--- .... ....
..4E|..|F-4 2..F ....|F-2 .8.. ....|--- .... ....
....|..|--- ...A ....|--- .... ....|--- .... ....
..5D|..|A-4 3..F ....|D-2 .8.. ....|--- .... ....
....|..|--- ...A ....|--- .... ....|--- .... ....
..4E|..|C-5 4..F ....|F-2 .8.. ....|--- .... ....
....|..|--- ...A ....|--- .... ....|--- .... ....
..4E|..|A-4 5..F ....|F-2 .8.. ....|--- .... ....
....|..|--- ...A ....|--- .... ....|--- .... ....
..27|..|C-5 6..F ....|F-3 .8.. ....|--- .... ....
....|..|--- ...A ....|--- .... ....|--- .... ....
..34|..|E-5 7..F ....|C-3 .8.. ....|A-5 A... ....
....|..|--- ...A ....|--- .... ....|--- .... ....
....|..|C-5 8..F ....|--- .... ....|--- .... ....
....|..|--- ...A ....|--- .... ....|--- .... ....
....|..|E-5 9..F ....|--- .... ....|--- .... ....
....|..|--- ...A ....|--- .... ....|--- .... ....
....|..|G-5 A..F ....|--- .... ....|--- .... ....
....|..|--- ...A ....|--- .... ....|--- .... ....
....|..|E-5 B..F ....|--- .... ....|--- .... ....
....|..|--- ...A ....|--- .... ....|--- .... ....
....|..|G-5 C..F ....|--- .... ....|--- .... ....
....|..|--- ...A ....|--- .... ....|--- .... ....
..46|..|B-5 D..F ....|G-2 .8.. ....|D-6 1... ....
....|..|--- ...A ....|--- .... ....|--- .... ....
....|..|G-5 E..F ....|--- .... ....|--- .... ....
....|..|--- ...A ....|--- .... ....|--- .... ....
..46|..|E-5 F..F ....|G-2 .8.. ....|--- .... ....
....|..|--- ...A ....|--- .... ....|--- .... ....
..3E|..|C-5 G..F ....|A-2 .8.. 33..|--- .... ....
....|..|--- ...A ....|C-3 .F.. 3330|--- .... ....
..2F|..|B-4 ...F ....|D-3 .8.. ....|B-5 .... ....
....|..|--- ...A ....|--- .... ....|--- .... ....
....|..|G-4 F..F ....|--- .... ....|--- .... ....
....|..|--- ...A ....|--- .... ....|--- .... ....
....|..|B-4 E..F ....|--- .... ....|--- .... ....
....|..|--- ...A ....|--- .... ....|--- .... ....
..2F|..|D-5 D..F ....|D-3 .8.. ....|--- .... ....
....|..|--- ...A ....|--- .... ....|--- .... ....
..2F|..|B-4 C..F ....|D-3 .8.. ....|--- .... ....
....|..|--- ...A ....|--- .... ....|--- .... ....
..3E|..|D-5 B..F ....|A-2 .8.. ....|--- .... ....
....|..|--- ...A ....|--- .... ....|--- .... ....
..37|..|F#5 A..F ....|B-2 .8.. ....|C#6 .... ....
....|..|--- ...A ....|--- .... ....|--- .... ....
....|..|D-5 9..F ....|--- .... ....|--- .... ....
....|..|--- ...A ....|--- .... ....|--- .... ....
....|..|F#5 8..F ....|--- .... ....|--- .... ....
....|..|--- ...A ....|--- .... ....|--- .... ....
....|..|A-5 7..F ....|--- .... ....|--- .... ....
....|..|--- ...A ....|--- .... ....|--- .... ....
....|..|F#5 6..F ....|--- .... ....|--- .... ....
....|..|--- ...A ....|--- .... ....|--- .... ....
..2F|..|A-5 5..F ....|D-3 .8.. ....|--- .... ....
....|..|--- ...A ....|--- .... ....|--- .... ....
..37|..|C#6 4..F ....|B-2 .8.. ....|A-5 .... ....
....|..|--- ...A ....|--- .... ....|--- .... ....
..31|..|D-6 3..F ....|C#3 .8.. ....|--- .... ....
....|..|--- ...A ....|--- .... ....|--- .... ....
..63|..|C#6 2..F ....|C#2 .8.. ....|--- .... ....
....|..|--- ...A ....|--- .... ....|--- .... ....
..3E|..|A-5 1..F ....|A-2 .8.. ....|--- .... ....
....|..|--- ...A ....|--- .... ....|--- .... ....

[Pattern3]
..4E|..|A-4 1..F ....|F-2 H8.. ....|F-5 1... ....
....|..|D-5 ...A ....|--- .... ....|--- .... ....
..4E|..|F-4 2..F ....|F-2 .8.. ....|--- .... ....
....|..|A-4 1..A ....|--- .... ....|--- .... ....
..5D|..|A-4 3..F ....|D-2 .8.. ....|--- .... ....
....|..|F-4 2..A ....|--- .... ....|--- .... ....
..4E|..|C-5 4..F ....|F-2 .8.. ....|--- .... ....
....|..|A-4 3..A ....|--- .... ....|--- .... ....
..4E|..|A-4 5..F ....|F-2 .8.. ....|--- .... ....
....|..|C-5 4..A ....|--- .... ....|--- .... ....
..27|..|C-5 6..F ....|F-3 .8.. ....|--- .... ....
....|..|A-4 5..A ....|--- .... ....|--- .... ....
..34|..|E-5 7..F ....|C-3 .8.. ....|A-5 A... ....
....|..|C-5 6..A ....|--- .... ....|--- .... ....
....|..|C-5 8..F ....|--- .... ....|--- .... ....
....|..|E-5 7..A ....|--- .... ....|--- .... ....
....|..|E-5 9..F ....|--- .... ....|--- .... ....
....|..|C-5 8..A ....|--- .... ....|--- .... ....
....|..|G-5 A..F ....|--- .... ....|--- .... ....
....|..|E-5 9..A ....|--- .... ....|--- .... ....
....|..|E-5 B..F ....|--- .... ....|--- .... ....
....|..|G-5 A..A ....|--- .... ....|--- .... ....
....|..|G-5 C..F ....|--- .... ....|--- .... ....
....|..|E-5 B..A ....|--- .... ....|--- .... ....
..46|..|B-5 D..F ....|G-2 .8.. ....|D-6 1... ....
....|..|G-5 C..A ....|--- .... ....|--- .... ....
....|..|G-5 E..F ....|--- .... ....|--- .... ....
....|..|B-5 D..A ....|--- .... ....|--- .... ....
..46|..|E-5 F..F ....|G-2 .8.. ....|--- .... ....
....|..|G-5 E..A ....|--- .... ....|--- .... ....
..3E|..|C-5 G..F ....|A-2 .8.. 33..|--- .... ....
....|..|E-5 F..A ....|C-3 .F.. 3330|--- .... ....
..2F|..|B-4 G..F ....|D-3 .8.. ....|B-5 .... ....
....|..|C-5 ...A ....|--- .... ....|--- .... ....
....|..|G-4 F..F ....|--- .... ....|--- .... ....
....|..|B-4 G..A ....|--- .... ....|--- .... ....
....|..|B-4 E..F ....|--- .... ....|--- .... ....
....|..|G-4 F..A ....|--- .... ....|--- .... ....
..2F|..|D-5 D..F ....|D-3 .8.. ....|--- .... ....
....|..|B-4 E..A ....|--- .... ....|--- .... ....
..2F|..|B-4 C..F ....|D-3 .8.. ....|--- .... ....
....|..|D-5 D..A ....|--- .... ....|--- .... ....
..3E|..|D-5 B..F ....|A-2 .8.. ....|--- .... ....
....|..|B-4 C..A ....|--- .... ....|--- .... ....
..37|..|F#5 A..F ....|B-2 .8.. ....|C#6 .... ....
....|..|D-5 B..A ....|--- .... ....|--- .... ....
....|..|D-5 9..F ....|--- .... ....|--- .... ....
....|..|F#5 A..A ....|--- .... ....|--- .... ....
....|..|F#5 8..F ....|--- .... ....|--- .... ....
....|..|D-5 9..A ....|--- .... ....|--- .... ....
....|..|A-5 7..F ....|--- .... ....|--- .... ....
....|..|F#5 8..A ....|--- .... ....|--- .... ....
....|..|F#5 6..F ....|--- .... ....|--- .... ....
....|..|A-5 7..A ....|--- .... ....|--- .... ....
..2F|..|A-5 5..F ....|D-3 .8.. ....|--- .... ....
....|..|F#5 6..A ....|--- .... ....|--- .... ....
..37|..|C#6 4..F ....|B-2 .8.. ....|A-5 .... ....
....|..|A-5 5..A ....|--- .... ....|--- .... ....
..31|..|D-6 3..F ....|C#3 .8.. ....|--- .... ....
....|..|C#6 4..A ....|--- .... ....|--- .... ....
..63|..|C#6 2..F ....|C#2 .8.. ....|--- .... ....
....|..|D-6 3..A ....|--- .... ....|--- .... ....
..3E|..|A-5 1..F ....|A-2 .8.. ....|--- .... ....
....|..|C#6 2..A ....|--- .... ....|--- .... ....

[Pattern4]
..58|..|C-5 1..F ....|D#2 H8.. ....|G#5 1... ....
....|..|--- .... ....|--- .... ....|--- .... ....
....|..|G#4 2..F ....|--- .... ....|--- .... ....
....|..|--- 1..A ....|--- .... ....|--- .... ....
....|..|C-5 3..F ....|--- .... ....|--- .... ....
....|..|--- 2..A ....|--- .... ....|--- .... ....
..58|..|D#5 4..F ....|D#2 .8.. ....|--- .... ....
....|..|--- 3..A ....|--- .... ....|--- .... ....
..58|..|C-5 5..F ....|D#2 .8.. ....|--- .... ....
....|..|--- 4..A ....|--- .... ....|--- .... ....
..2C|..|D#5 6..F ....|D#3 .8.. ....|--- .... ....
....|..|--- 5..A ....|--- .... ....|--- .... ....
..3B|..|G-5 7..F ....|A#2 .8.. ....|C-6 A... ....
....|..|--- 6..A ....|--- .... ....|--- .... ....
....|..|D#5 8..F ....|--- .... ....|--- .... ....
....|..|--- 7..A ....|--- .... ....|--- .... ....
....|..|G-5 9..F ....|--- .... ....|--- .... ....
....|..|--- 8..A ....|--- .... ....|--- .... ....
....|..|A#5 A..F ....|--- .... ....|--- .... ....
....|..|--- 9..A ....|--- .... ....|--- .... ....
....|..|G-5 B..F ....|--- .... ....|--- .... ....
....|..|--- A..A ....|--- .... ....|--- .... ....
....|..|A#5 C..F ....|--- .... ....|--- .... ....
....|..|--- B..A ....|--- .... ....|--- .... ....
..3B|..|D-6 D..F ....|A#2 .8.. ....|G-5 6... ....
....|..|--- C..A ....|--- .... ....|--- .... ....
....|..|A#5 E..F ....|--- .... ....|--- .... ....
....|..|--- D..A ....|--- .... ....|--- .... ....
..58|..|G-5 F..F ....|D#2 .8.. ....|--- .... ....
....|..|--- E..A ....|--- .... ....|--- .... ....
..4E|..|C-5 G..F ....|F-2 .8.. ....|--- .... ....
....|..|--- F..A ....|G-2 .... ....|--- .... ....
..42|..|C#5 G..F ....|G#2 .8.. ....|F-5 1... ....
....|..|--- G..A ....|--- .... ....|--- .... ....
....|..|A#4 F..F ....|--- .... ....|--- .... ....
....|..|--- G..A ....|--- .... ....|--- .... ....
....|..|C#5 E..F ....|--- .... ....|--- .... ....
....|..|--- F..A ....|--- .... ....|--- .... ....
..42|..|F-5 D..F ....|G#2 .8.. ....|--- .... ....
....|..|--- E..A ....|--- .... ....|--- .... ....
..42|..|C#5 C..F ....|G#2 .8.. ....|--- .... ....
....|..|--- D..A ....|--- .... ....|--- .... ....
..3B|..|F-5 B..F ....|A#2 .8.. ....|--- .... ....
....|..|--- C..A ....|--- .... ....|--- .... ....
..37|..|F#5 A..F ....|B-2 .8.. ....|D#5 .... ....
....|..|--- B..A ....|--- .... ....|--- .... ....
....|..|D#5 9..F ....|--- .... ....|--- .... ....
....|..|--- A..A ....|--- .... ....|--- .... ....
....|..|F#5 A..F ....|--- .... ....|--- .... ....
....|..|--- 9..A ....|--- .... ....|--- .... ....
....|..|A#5 7..F ....|--- .... ....|--- .... ....
....|..|--- 8..A ....|--- .... ....|--- .... ....
....|..|F#5 6..F ....|--- .... ....|--- .... ....
....|..|--- 7..A ....|--- .... ....|--- .... ....
..3B|..|A#5 5..F ....|A#2 .8.. ....|--- .... ....
....|..|--- 6..A ....|--- .... ....|--- .... ....
..4E|..|C#6 1..F 22.2|F-2 .8.. ....|--- .... ....
....|..|--- 4... 2..2|--- .... ....|--- .... ....
..37|..|--- 3... 2..2|B-2 .8.. ....|--- .... ....
....|..|--- 3... 2..1|--- .... ....|--- .... ....
..3B|..|--- 2... ....|A#2 .8.. ....|--- .... ....
....|..|--- 2... ....|G#2 .... ....|--- .... ....
..46|..|--- 1... ....|G-2 .8.. ....|--- .... ....
....|..|--- 1... ....|--- .... ....|--- .... ....

[Pattern5]
..9D|..|A-4 4.5. ....|F-2 H8.. ....|A-4 1FFF ....
....|..|--- .... ....|--- .... ....|--- .... ....
....|..|F-4 .... ....|--- .... ....|B-4 2... ....
....|..|--- .... ....|--- .... ....|--- .... ....
....|..|A-4 .... ....|--- .... ....|C-5 3... ....
....|..|--- .... ....|--- .... ....|--- .... ....
..9D|..|C-5 .... ....|F-2 .8.. ....|--- .... ....
....|..|--- .... ....|--- .... ....|--- .... ....
..9D|..|A-4 .... ....|F-2 .8.. ....|--- .... ....
....|..|--- .... ....|--- .... ....|--- .... ....
..4E|..|C-5 .... ....|F-3 .8.. ....|--- .... ....
....|..|--- .... ....|--- .... ....|--- .... ....
..68|..|E-5 .... ....|C-3 .8.. ....|D-4 6... ....
....|..|--- .... ....|--- .... ....|--- .... ....
....|..|C-5 .... ....|--- .... ....|E-4 7... ....
....|..|--- .... ....|--- .... ....|--- .... ....
....|..|E-5 .... ....|--- .... ....|G-4 8... ....
....|..|--- .... ....|--- .... ....|--- .... ....
....|..|G-5 .... ....|--- .... ....|--- .... ....
....|..|--- .... ....|--- .... ....|--- .... ....
....|..|E-5 .... ....|--- .... ....|--- .... ....
....|..|--- .... ....|--- .... ....|--- .... ....
....|..|G-5 .... ....|--- .... ....|--- .... ....
....|..|--- .... ....|--- .... ....|--- .... ....
..68|..|B-5 .... 6.81|C-3 .8.. ....|E-4 B... ....
....|..|--- .... ....|--- .... ....|--- .... ....
....|..|G-5 .... ....|--- .... ....|F-4 C... ....
....|..|--- .... ....|--- .... ....|--- .... ....
..9D|..|E-5 .... ....|F-2 .8.. ....|G-4 D... ....
....|..|--- .... ....|--- .... ....|--- .... ....
..8C|..|C-5 .... ....|G-2 .8.. 33..|A-4 E... ....
....|..|--- .... ....|A-2 .F.. 3330|--- .... ....
..8C|..|B-4 .... ....|G-2 .8.. ....|D-4 F... ....
....|..|--- .... ....|--- .... ....|E-4 .... 3320
....|..|G-4 .... ....|--- .... ....|--- .... ....
....|..|--- .... ....|--- .... ....|--- .... ....
....|..|B-4 .... ....|--- .... ....|G-4 .... ....
....|..|--- .... ....|--- .... ....|--- .... ....
..8C|..|D-5 .... ....|G-2 .8.. ....|G-4 E... ....
....|..|--- .... ....|--- .... ....|A-4 .... 3330
..8C|..|B-4 .... ....|G-2 .8.. ....|--- .... ....
....|..|--- .... ....|--- .... ....|--- .... ....
..5D|..|D-5 .... ....|D-3 .8.. ....|F#4 C... ....
....|..|--- .... ....|--- .... ....|--- .... ....
..7C|..|F#5 .... ....|A-2 .8.. ....|D-4 B... ....
....|..|--- .... ....|--- .... ....|--- .... ....
....|..|D-5 .... ....|--- .... ....|C#4 A... ....
....|..|--- .... ....|--- .... ....|--- .... ....
....|..|F#5 .... ....|--- .... ....|--- .... ....
....|..|--- .... ....|--- .... ....|--- .... ....
....|..|A-5 .... ....|--- .... ....|E-4 8... ....
....|..|--- .... ....|--- .... ....|--- .... ....
....|..|F#5 .... ....|--- .... ....|D-4 7... ....
....|..|--- .... ....|--- .... ....|--- .... ....
..7C|..|A-5 .... ....|A-2 .8.. ....|C#4 6... ....
....|..|--- .... ....|--- .... ....|--- .... ....
..BA|..|C#6 .... 6.81|D-2 .8.. ....|A-4 5... ....
....|..|--- .... ....|--- .... ....|--- .... ....
..7C|..|A-5 .... ....|A-2 .8.. ....|E-4 4... ....
....|..|--- .... ....|--- .... ....|--- .... ....
..5D|..|F#5 .... ....|D-3 .8.. ....|D-4 3... ....
....|..|--- .... ....|--- .... ....|--- .... ....
....|..|D-5 .... ....|--- .... ....|C#4 2... ....
....|..|--- .... ....|--- .... ....|--- .... ....

[Pattern6]
..4E|..|A-4 4.5. ....|F-2 H8.. ....|C-4 1F.. ....
....|..|--- .... ....|--- .... ....|--- .... ....
....|..|F-4 .... ....|--- .... ....|--- .... ....
....|..|--- .... ....|--- .... ....|--- .... ....
....|..|A-4 .... ....|--- .... ....|--- .... ....
....|..|--- .... ....|--- .... ....|--- .... ....
..4E|..|C-5 .... ....|F-2 .8.. ....|--- .... ....
....|..|--- .... ....|--- .... ....|--- .... ....
..4E|..|A-4 .... ....|F-2 .8.. ....|G-3 4... ....
....|..|--- .... ....|--- .... ....|--- .... ....
..27|..|C-5 .... ....|F-3 .8.. ....|A-3 5... ....
....|..|--- .... ....|--- .... ....|--- .... ....
..34|..|E-5 .... ....|C-3 .8.. ....|E-4 6... ....
....|..|--- .... ....|--- .... ....|--- .... ....
....|..|C-5 .... ....|--- .... ....|--- .... ....
....|..|--- .... ....|--- .... ....|--- .... ....
....|..|E-5 .... ....|--- .... ....|--- .... ....
....|..|--- .... ....|--- .... ....|--- .... ....
....|..|G-5 .... ....|--- .... ....|--- .... ....
....|..|--- .... ....|--- .... ....|--- .... ....
..46|..|E-5 .... ....|G-2 .8.. ....|G-4 9... ....
....|..|--- .... ....|--- .... ....|A-4 .... ....
....|..|G-5 .... ....|--- .... ....|--- .... ....
....|..|--- .... ....|--- .... ....|--- .... ....
....|..|B-5 .... 6.81|--- .... ....|--- .... ....
....|..|--- .... ....|--- .... ....|--- .... ....
..46|..|G-5 .... ....|G-2 .8.. ....|F-4 C... ....
....|..|--- .... ....|--- .... ....|F#4 .... 33A0
..4E|..|E-5 .... ....|F-2 .8.. ....|G-4 .... 33A0
....|..|--- .... ....|--- .... ....|--- .... ....
..46|..|C-5 .... ....|G-2 .8.. 33..|--- .... ....
....|..|--- .... ....|A-2 .F.. 3330|--- .... ....
..46|..|B-4 .... ....|G-2 .8.. ....|A-4 E... ....
....|..|--- .... ....|--- .... ....|B-4 .... 33A0
....|..|G-4 .... ....|--- .... ....|--- .... ....
....|..|--- .... ....|--- .... ....|--- .... ....
....|..|B-4 .... ....|--- .... ....|C-5 G... ....
....|..|--- .... ....|--- .... ....|--- .... ....
..46|..|D-5 .... ....|G-2 .8.. ....|A-4 F... ....
....|..|--- .... ....|--- .... ....|B-4 .... 33A0
..46|..|B-4 .... ....|G-2 .8.. ....|--- .... ....
....|..|--- .... ....|--- .... ....|--- .... ....
..2F|..|D-5 .... ....|D-3 .8.. ....|A-4 E... ....
....|..|--- .... ....|--- .... ....|--- .... ....
..3E|..|F#5 .... ....|A-2 .8.. ....|C#5 D... ....
....|..|--- .... ....|--- .... ....|D-5 .... 33A0
....|..|D-5 .... ....|--- .... ....|C#5 .... 33A0
....|..|--- .... ....|--- .... ....|--- .... ....
....|..|C#5 ...F 6.81|--- .... ....|A-4 C... ....
....|..|B-4 1.FA ....|--- .... ....|--- .... ....
....|..|C#5 4.5F ....|--- .... ....|B-4 B... ....
....|..|E-5 1.FA ....|--- .... ....|--- .... ....
....|..|C#5 4.5F ....|--- .... ....|E-4 A... ....
....|..|B-4 1.FA ....|--- .... ....|--- .... ....
..3E|..|C#5 4.5F ....|A-2 .8.. ....|B-3 9... ....
....|..|F#5 1.FA ....|--- .... ....|--- .... ....
..5D|..|C#5 4.5F ....|D-2 .8.. ....|C#4 8... ....
....|..|F#5 1.FA ....|--- .... ....|--- .... ....
..3E|..|A-5 4.5F ....|A-2 .8.. ....|--- .... ....
....|..|B-5 1.FA ....|--- .... ....|--- .... ....
..2F|..|G#5 4.5F ....|D-3 .8.. ....|D-4 7... ....
....|..|E-5 1.FA ....|--- .... ....|--- .... ....
....|..|C#5 ..5F ....|--- .... ....|C#4 6... ....
....|..|--- .... ....|--- .... ....|--- .... ....

[Pattern7]
..58|..|C-5 4.5. ....|D#2 H8.. ....|C-4 1..F ....
....|..|--- .... ....|--- .... ....|--- .... ....
....|..|G#4 .... ....|--- .... ....|--- .... ....
....|..|--- .... ....|--- .... ....|--- .... ....
....|..|C-5 .... ....|--- .... ....|--- .... ....
....|..|--- .... ....|--- .... ....|--- .... ....
..58|..|D#5 .... ....|D#2 .8.. ....|D#4 4... ....
....|..|--- .... ....|--- .... ....|--- .... ....
..58|..|C-5 .... ....|D#2 .8.. ....|--- .... ....
....|..|--- .... ....|--- .... ....|--- .... ....
..2C|..|D#5 .... ....|D#3 .8.. ....|--- .... ....
....|..|--- .... ....|--- .... ....|--- .... ....
..3B|..|G-5 .... ....|A#2 .8.. ....|D-4 6... ....
....|..|--- .... ....|--- .... ....|--- .... ....
....|..|D#5 .... ....|--- .... ....|--- .... ....
....|..|--- .... ....|--- .... ....|--- .... ....
....|..|G-5 .... ....|--- .... ....|A#3 8... ....
....|..|--- .... ....|--- .... ....|--- .... ....
....|..|A#5 .... ....|--- .... 1..1|--- .... ....
....|..|--- .... ....|--- .... ....|--- .... ....
....|..|G-5 .... ....|--- .... 2..1|--- .... ....
....|..|--- .... ....|--- .... ....|--- .... ....
....|..|A#5 .... ....|--- .... 1..2|G-3 A... ....
....|..|--- .... ....|--- .... ....|--- .... ....
..3B|..|D-6 .... ....|A#2 .8.. ....|G#3 9... ....
....|..|--- .... ....|--- .... ....|--- .... ....
....|..|A#5 .... ....|--- .... ....|A#3 8... ....
....|..|--- .... ....|--- .... ....|--- .... ....
..58|..|G-5 .... ....|D#2 .8.. ....|D-4 7... ....
....|..|--- .... ....|--- .... ....|--- .... ....
..4E|..|C-5 .... ....|F-2 .8.. 33..|A#3 6... ....
....|..|--- .... ....|G-2 .F.. 3330|--- .... ....
..42|..|C#5 .... ....|G#2 .8.. ....|E-4 5... ....
....|..|--- .... ....|--- .... ....|F-4 .... ....
....|..|A#4 .... ....|--- .... ....|--- .... ....
....|..|--- .... ....|--- .... ....|--- .... ....
....|..|C#5 .... ....|--- .... ....|G#4 3... ....
....|..|--- .... ....|--- .... ....|--- .... ....
..42|..|F-5 .... ....|G#2 .8.. ....|B-4 2... ....
....|..|--- .... ....|--- .... ....|C-5 .... ....
..42|..|C#5 .... ....|G#2 .8.. ....|--- .... ....
....|..|--- .... ....|--- .... ....|--- .... ....
..3B|..|F-5 .... ....|A#2 .8.. ....|D#5 .... ....
....|..|--- .... ....|--- .... ....|--- .... ....
..37|..|F#5 .... ....|B-2 .8.. ....|C-5 3... ....
....|..|--- .... ....|--- .... ....|A#4 .... ....
....|..|D#5 .... ....|--- .... ....|--- .... ....
....|..|--- .... ....|--- .... ....|--- .... ....
....|..|F#5 .... ....|--- .... ....|--- .... ....
....|..|--- .... ....|--- .... ....|A#4 5..A ....
....|..|A#5 .... ....|--- .... ....|--- .... ....
....|..|--- .... ....|--- .... ....|--- .... ....
....|..|F#5 .... ....|--- .... ....|--- .... ....
....|..|--- .... ....|--- .... ....|A#4 7..1 ....
..4A|..|A#5 1... ....|F#2 .8.. ....|--- .... ....
....|..|--- .... ....|--- .... ....|--- .... ....
....|..|C#6 ..FB 32.3|--- .... ....|--- .... ....
....|..|--- .... ....|--- .... ....|--- .... ....
..4E|..|--- .... ....|F-2 .8.. ....|--- .... ....
....|..|--- .... ....|--- .... ....|--- .... ....
....|..|--- .... ....|--- .... ....|--- .... ....
....|..|--- .... ....|--- .... ....|--- .... ....
....|..|--- .... ....|--- .... ....|--- .... ....
....|..|--- .... ....|--- .... ....|--- .... ....

[Pattern8]
..4E|..|A-4 4.5F B..5|F-2 H8.. ....|F-4 1.6F ....
....|..|--- .... ....|--- .... ....|--- .... ....
....|..|F-4 .... ....|--- .... ....|--- .... ....
....|..|--- .... ....|--- .... ....|--- .... ....
....|..|A-4 .... ....|--- .... ....|--- .... ....
....|..|--- .... ....|--- .... ....|--- .... ....
..4E|..|C-5 .... ....|F-2 .8.. ....|--- .... ....
....|..|--- .... ....|--- .... ....|--- .... ....
..4E|..|A-4 .... ....|F-2 .8.. ....|--- .... ....
....|..|--- .... ....|--- .... ....|--- .... ....
..27|..|C-5 .... ....|F-3 .8.. ....|--- .... ....
....|..|--- .... ....|--- .... ....|--- .... ....
..34|..|E-5 .... ....|C-3 .8.. ....|--- .... ....
....|..|--- .... ....|--- .... ....|--- .... ....
....|..|C-5 .... ....|--- .... ....|--- .... ....
....|..|--- .... ....|--- .... ....|--- .... ....
....|..|E-5 .... ....|--- .... ....|E-4 1.7. ....
....|..|--- .... ....|--- .... ....|--- .... ....
....|..|G-5 .... ....|--- .... ....|--- .... ....
....|..|--- .... ....|--- .... ....|--- .... ....
....|..|E-5 .... ....|--- .... ....|--- .... ....
....|..|--- .... ....|--- .... ....|--- .... ....
....|..|G-5 .... ....|--- .... ....|--- .... ....
....|..|--- .... ....|--- .... ....|--- .... ....
..34|..|B-5 .... ....|C-3 .8.. ....|--- .... ....
....|..|--- .... ....|--- .... ....|--- .... ....
....|..|G-5 .... ....|--- .... ....|--- .... ....
....|..|--- .... ....|--- .... ....|--- .... ....
..4E|..|E-5 .... ....|F-2 .8.. ....|--- .... ....
....|..|--- .... ....|--- .... ....|--- .... ....
..46|..|C-5 .... ....|G-2 .8.. ....|--- .... ....
....|..|--- .... ....|A-2 .F.. 3330|--- .... ....
....|..|B-4 .... ....|G-2 .... 3381|D-4 1.8. ....
....|..|--- .... ....|--- .... ....|--- .... ....
....|..|G-4 .... ....|--- .... ....|--- .... ....
....|..|--- .... ....|--- .... ....|--- .... ....
....|..|B-4 .... ....|--- .... ....|--- .... ....
....|..|--- .... ....|--- .... ....|--- .... ....
..46|..|D-5 .... ....|G-2 .8.. ....|--- .... ....
....|..|--- .... ....|--- .... ....|--- .... ....
..46|..|B-4 .... ....|G-2 .8.. ....|--- .... ....
....|..|--- .... ....|--- .... ....|--- .... ....
..2F|..|D-5 .... ....|D-3 .8.. ....|--- .... ....
....|..|--- .... ....|--- .... ....|--- .... ....
..3E|..|F#5 .... ....|A-2 .8.. ....|--- .... ....
....|..|--- .... ....|--- .... ....|--- .... ....
....|..|D-5 .... ....|--- .... ....|--- .... ....
....|..|--- .... ....|--- .... ....|--- .... ....
....|..|F#5 .... ....|--- .... ....|C#4 1.9. ....
....|..|--- .... ....|--- .... ....|--- .... ....
....|..|A-5 .... ....|--- .... ....|--- .... ....
....|..|--- .... ....|--- .... ....|--- .... ....
....|..|F#5 .... ....|--- .... ....|--- .... ....
....|..|--- .... ....|--- .... ....|--- .... ....
..3E|..|A-5 .... ....|A-2 .8.. ....|--- .... ....
....|..|--- .... ....|--- .... ....|--- .... ....
..5D|..|C#6 .... ....|D-2 .8.. ....|--- .... ....
....|..|--- .... ....|--- .... ....|--- .... ....
..3E|..|A-5 .... ....|A-2 .8.. ....|--- .... ....
....|..|--- .... ....|--- .... ....|--- .... ....
..2F|..|F#5 .... ....|D-3 .8.. ....|--- .... ....
....|..|--- .... ....|--- .... ....|--- .... ....
....|..|D-5 .... ....|--- .... ....|--- .... ....
....|..|--- .... ....|--- .... ....|--- .... ....

[Pattern9]
..53|..|E-5 4.FF 3330|E-2 H8.. ....|D-4 1.6F ....
....|..|F-5 1... 33A0|--- .... ....|--- .... ....
....|..|F#5 4... 33A0|--- .... ....|--- .... ....
....|..|--- .... ....|--- .... ....|--- .... ....
....|..|--- .... ....|--- .... ....|--- .... ....
....|..|--- .... ....|--- .... ....|--- .... ....
..53|..|--- .... ....|E-2 .8.. ....|--- .... ....
....|..|--- .... ....|--- .... ....|--- .... ....
..53|..|--- .... ....|E-2 .8.. ....|--- .... ....
....|..|--- .... ....|--- .... ....|--- .... ....
..2A|..|--- .... ....|E-3 .8.. ....|--- .... ....
....|..|--- .... ....|--- .... ....|--- .... ....
..37|..|--- .... ....|B-2 .8.. ....|--- .... ....
....|..|--- .... ....|--- .... ....|--- .... ....
....|..|--- .... ....|--- .... ....|--- .... ....
....|..|--- .... ....|--- .... ....|--- .... ....
....|..|--- .... ....|--- .... ....|D-4 ..A. ....
....|..|--- .... ....|--- .... ....|--- .... ....
....|..|--- .... ....|--- .... ....|--- .... ....
....|..|--- .... ....|--- .... ....|--- .... ....
....|..|--- .... ....|--- .... ....|--- .... ....
....|..|--- .... ....|--- .... ....|--- .... ....
....|..|--- .... ....|--- .... ....|--- .... ....
....|..|--- .... ....|--- .... ....|--- .... ....
..37|..|--- .... ....|B-2 .8.. ....|--- .... ....
....|..|--- .... ....|--- .... ....|--- .... ....
....|..|--- .... ....|--- .... ....|--- .... ....
....|..|--- .... ....|--- .... ....|--- .... ....
..53|..|--- .... ....|E-2 .8.. ....|--- .... ....
....|..|--- .... ....|--- .... ....|--- .... ....
..4A|..|--- .... ....|F#2 .8.. ....|--- .... ....
....|..|--- .... ....|G#2 .F.. 3330|--- .... ....
..4A|..|E-5 .... ....|F#2 .8.. ....|B-3 G.8. ....
....|..|F#5 1... 33A0|--- .... ....|--- .... ....
....|..|--- .... ....|--- .... ....|--- .... ....
....|..|--- .... ....|--- .... ....|--- .... ....
....|..|--- .... ....|--- .... ....|--- .... ....
....|..|--- .... ....|--- .... ....|--- .... ....
..4A|..|A-5 .... ....|F#2 .8.. ....|--- .... ....
....|..|--- .... ....|--- .... ....|--- .... ....
..4A|..|--- .... ....|F#2 .8.. ....|--- .... ....
....|..|--- .... ....|--- .... ....|--- .... ....
..31|..|--- .... ....|C#3 .8.. ....|--- .... ....
....|..|--- .... ....|--- .... ....|--- .... ....
..42|..|F#5 .... ....|G#2 .8.. ....|C#4 1.B. ....
....|..|G#5 .... 33A0|--- .... ....|--- .... ....
....|..|--- .... ....|--- .... ....|--- .... ....
....|..|--- .... ....|--- .... ....|--- .... ....
....|..|--- .... ....|--- .... ....|--- .... ....
....|..|--- .... ....|--- .... ....|--- .... ....
....|..|--- .... ....|--- .... ....|--- .... ....
....|..|--- .... ....|--- .... ....|--- .... ....
....|..|--- .... ....|--- .... ....|--- .... ....
....|..|--- .... ....|--- .... ....|--- .... ....
..42|..|E-5 .... ....|G#2 .8.. ....|--- .... ....
....|..|--- .... ....|--- .... ....|--- .... ....
..63|..|--- .... ....|C#2 .8.. ....|--- .... ....
....|..|--- .... ....|--- .... ....|--- .... ....
..42|..|--- .... ....|G#2 .8.. ....|--- .... ....
....|..|--- .... ....|--- .... ....|--- .... ....
..31|..|B-4 .... ....|C#3 .8.. ....|--- .... ....
....|..|--- .... ....|--- .... ....|--- .... ....
....|..|E-5 .... ....|--- .... ....|--- .... ....
....|..|--- .... ....|--- .... ....|--- .... ....

[Pattern10]
..53|..|B-4 1... ....|E-2 H8.. ....|D-4 1.6. ....
....|..|--- .... ....|--- .... ....|--- .... ....
....|..|--- .... ....|--- .... ....|--- .... ....
....|..|--- .... ....|--- .... ....|--- .... ....
....|..|--- .... ....|--- .... ....|--- .... ....
....|..|--- .... ....|--- .... ....|--- .... ....
..53|..|--- .... ....|E-2 .8.. ....|--- .... ....
....|..|--- .... ....|--- .... ....|--- .... ....
..53|..|--- .... ....|E-2 .8.. ....|D-4 ..C. ....
....|..|--- .... ....|--- .... ....|--- .... ....
..2A|..|--- .... ....|E-3 .8.. ....|--- .... ....
....|..|--- .... ....|--- .... ....|--- .... ....
..37|..|E-5 .... ....|B-2 .8.. ....|--- .... ....
....|..|--- .... ....|--- .... ....|--- .... ....
....|..|--- .... ....|--- .... ....|D-4 ..A. ....
....|..|--- .... ....|--- .... ....|--- .... ....
....|..|--- .... ....|--- .... ....|--- .... ....
....|..|--- .... ....|--- .... ....|--- .... ....
....|..|--- .... ....|--- .... ....|--- .... ....
....|..|--- .... ....|--- .... ....|--- .... ....
....|..|--- .... ....|--- .... ....|--- .... ....
....|..|--- .... ....|--- .... ....|--- .... ....
....|..|--- .... ....|--- .... ....|--- .... ....
....|..|--- .... ....|--- .... ....|--- .... ....
..37|..|A-5 .... ....|B-2 .8.. ....|--- .... ....
....|..|--- .... ....|--- .... ....|--- .... ....
....|..|--- .... ....|--- .... ....|--- .... ....
....|..|--- .... ....|--- .... ....|--- .... ....
..53|..|--- .... ....|E-2 .8.. ....|--- .... ....
....|..|--- .... ....|--- .... ....|--- .... ....
..4A|..|--- .... ....|F#2 .8.. ....|--- .... ....
....|..|--- .... ....|G#2 .... 3.30|--- .... ....
..4A|..|C#5 .... ....|F#2 .8.. ....|B-3 G.8. ....
....|..|--- .... ....|--- .... ....|--- .... ....
....|..|--- .... ....|--- .... ....|--- .... ....
....|..|--- .... ....|--- .... ....|--- .... ....
....|..|A-4 .... ....|--- .... ....|--- .... ....
....|..|--- .... ....|--- .... ....|--- .... ....
..4A|..|--- .... ....|F#2 .8.. ....|--- .... ....
....|..|--- .... ....|--- .... ....|--- .... ....
..4A|..|F#5 .... ....|F#2 .8.. ....|--- .... ....
....|..|--- .... ....|--- .... ....|--- .... ....
..31|..|--- .... ....|C#3 .8.. ....|--- .... ....
....|..|--- .... ....|--- .... ....|--- .... ....
..58|..|B-4 .... ....|D#2 .8.. 6.81|C#4 1.8. ....
....|..|C#5 .... 33A0|--- .... ....|--- .... ....
....|..|--- .... ....|--- .... ....|--- .... ....
....|..|--- .... ....|--- .... ....|--- .... ....
....|..|--- .... ....|--- .... ....|--- .... ....
....|..|--- .... ....|--- .... ....|--- .... ....
....|..|--- .... ....|--- .... ....|--- .... ....
....|..|--- .... ....|--- .... ....|--- .... ....
....|..|--- .... ....|--- .... ....|--- .... ....
....|..|--- .... ....|--- .... ....|--- .... ....
..42|..|--- .... ....|G#2 .8.. ....|--- .... ....
....|..|--- .... ....|--- .... ....|--- .... ....
..58|..|--- .... ....|D#2 .8.. ....|--- .... ....
....|..|--- .... ....|--- .... ....|--- .... ....
..3B|..|--- .... ....|A#2 .8.. ....|--- .... ....
....|..|--- .... ....|--- .... ....|--- .... ....
..2C|..|B-4 .... ....|D#3 .8.. ....|--- .... ....
....|..|C#5 .... ....|--- .... ....|--- .... ....
....|..|D#5 .... ....|--- .... ....|--- .... ....
....|..|E-5 .... ....|--- .... ....|--- .... ....

[Pattern11]
..53|..|--- .... ....|E-2 H8.. ....|E-4 1.6. ....
....|..|--- .... ....|--- .... ....|--- .... ....
....|..|--- .... ....|--- .... ....|--- .... ....
....|..|--- .... ....|--- .... ....|--- .... ....
....|..|--- .... ....|--- .... ....|--- .... ....
....|..|--- .... ....|--- .... ....|--- .... ....
..53|..|--- .... ....|E-2 .8.. ....|--- .... ....
....|..|--- .... ....|--- .... ....|--- .... ....
..53|..|--- .... ....|E-2 .8.. ....|--- .... ....
....|..|--- .... ....|--- .... ....|--- .... ....
..2A|..|A-5 4... 3330|E-3 .8.. ....|--- .... ....
....|..|A#5 .... 33A0|--- .... ....|--- .... ....
..37|..|B-5 .... 33A0|B-2 .8.. ....|--- .... ....
....|..|--- .... ....|--- .... ....|--- .... ....
....|..|--- .... ....|--- .... ....|--- .... ....
....|..|--- .... ....|--- .... ....|--- .... ....
....|..|--- .... ....|--- .... ....|--- .... ....
....|..|--- .... ....|--- .... ....|--- .... ....
....|..|--- .... ....|--- .... ....|--- .... ....
....|..|--- .... ....|--- .... ....|--- .... ....
....|..|--- .... ....|--- .... ....|--- .... ....
....|..|--- .... ....|--- .... ....|--- .... ....
....|..|--- .... ....|--- .... ....|--- .... ....
....|..|--- .... ....|--- .... ....|--- .... ....
..37|..|D-6 1... ....|B-2 .8.. ....|--- .... ....
....|..|--- .... ....|--- .... ....|--- .... ....
....|..|--- .... ....|--- .... ....|--- .... ....
....|..|--- .... ....|--- .... ....|--- .... ....
..53|..|--- .... ....|E-2 .8.. ....|--- .... ....
....|..|--- .... ....|--- .... ....|--- .... ....
..4A|..|--- .... ....|F#2 .8.. 33..|--- .... ....
....|..|--- .... ....|G#2 .F.. 3330|--- .... ....
..3E|..|A-5 .... ....|A-2 .8.. ....|C#4 1.D. ....
....|..|B-5 .... 33A0|--- .... ....|--- .... ....
....|..|--- .... ....|--- .... ....|--- .... ....
....|..|--- .... ....|--- .... ....|--- .... ....
....|..|--- .... ....|--- .... ....|--- .... ....
....|..|--- .... ....|--- .... ....|--- .... ....
..3E|..|--- .... ....|A-2 .8.. ....|--- .... ....
....|..|--- .... ....|--- .... ....|--- .... ....
..3E|..|--- .... ....|A-2 .8.. ....|--- .... ....
....|..|--- .... ....|--- .... ....|--- .... ....
..37|..|--- .... ....|B-2 .8.. ....|--- .... ....
....|..|--- .... ....|--- .... ....|--- .... ....
....|..|G-5 .... ....|C-3 .FF. ....|E-4 2.DF ....
....|..|--- .... ....|--- .... ....|--- .... ....
....|..|--- .... ....|--- .... ....|--- .... ....
....|..|--- .... ....|--- .... ....|--- .... ....
....|..|--- .... ....|--- .... ....|--- .... ....
....|..|--- .... ....|--- .... ....|--- .... ....
....|..|--- .... ....|--- .... ....|--- .... ....
....|..|--- .... ....|--- .... ....|--- .... ....
....|..|--- .... ....|--- .... ....|--- .... ....
....|..|--- .... ....|--- .... ....|--- .... ....
....|..|--- .... ....|--- .... ....|--- .... ....
....|..|--- .... ....|--- .... ....|--- .... ....
....|..|--- .... ....|--- .... ....|--- .... ....
....|..|--- .... ....|--- .... ....|--- .... ....
....|..|--- .... ....|--- .... ....|--- .... ....
....|..|--- .... ....|--- .... ....|--- .... ....
....|..|--- .... ....|--- .... ....|--- .... ....
....|..|--- .... ....|--- .... ....|--- .... ....
....|..|--- .... ....|--- .... ....|--- .... ....
....|..|--- .... ....|--- .... ....|--- .... ....

